<svg xmlns="http://www.w3.org/2000/svg" xmlns:cc="http://web.resource.org/cc/" xmlns:svg="http://www.w3.org/2000/svg" xmlns:xlink="http://www.w3.org/1999/xlink" id="svg2469" width="48" height="48" version="1.0"><defs id="defs2471"><linearGradient id="linearGradient7675"><stop style="stop-color:#fff;stop-opacity:1" id="stop7677" offset="0"/><stop style="stop-color:#72cf98;stop-opacity:.56862748" id="stop7679" offset="1"/></linearGradient><linearGradient id="linearGradient3627" x1="-868.685" x2="-865.214" y1="-181.719" y2="-150.962" gradientUnits="userSpaceOnUse" xlink:href="#linearGradient7675"/><filter id="filter7743"><feGaussianBlur id="feGaussianBlur7745" stdDeviation=".295"/></filter><filter id="filter7817"><feGaussianBlur id="feGaussianBlur7819" stdDeviation=".738"/></filter><linearGradient id="linearGradient7985"><stop id="stop7987" style="stop-color:#80a6d8;stop-opacity:1" offset="0"/><stop offset=".292" style="stop-color:#42699a;stop-opacity:1" id="stop7991"/><stop id="stop7989" style="stop-color:#99b8e1;stop-opacity:1" offset="1"/></linearGradient><linearGradient id="linearGradient3625" x1="2128.552" x2="2128.552" y1="15026.778" y2="14844.775" gradientTransform="matrix(-0.1666172,0,0,0.1651167,-514.04206,-2630.4125)" gradientUnits="userSpaceOnUse" xlink:href="#linearGradient7985"/><filter id="filter7917" width="1.25" height="2.135" x="-.125" y="-.568"><feGaussianBlur id="feGaussianBlur7919" stdDeviation="1.745"/></filter><radialGradient id="radialGradient3623" cx="320.25" cy="89.313" r="16.75" fx="320.25" fy="89.313" gradientTransform="matrix(1,0,0,0.2201493,0,69.65042)" gradientUnits="userSpaceOnUse" xlink:href="#linearGradient7615"/><radialGradient id="radialGradient3621" cx="320.25" cy="89.313" r="16.75" fx="320.25" fy="89.313" gradientTransform="matrix(1,0,0,0.2201493,0,69.65042)" gradientUnits="userSpaceOnUse" xlink:href="#linearGradient7615"/><filter id="filter7651" width="1.174" height="1.792" x="-.087" y="-.396"><feGaussianBlur id="feGaussianBlur7653" stdDeviation="1.217"/></filter><linearGradient id="linearGradient7615"><stop style="stop-color:#000;stop-opacity:1" id="stop7617" offset="0"/><stop style="stop-color:#000;stop-opacity:0" id="stop7619" offset="1"/></linearGradient><radialGradient id="radialGradient3619" cx="320.25" cy="89.313" r="16.75" fx="320.25" fy="89.313" gradientTransform="matrix(1,0,0,0.2201493,0,69.65042)" gradientUnits="userSpaceOnUse" xlink:href="#linearGradient7615"/></defs><metadata id="metadata2474"/><g id="layer1"><g style="display:inline;enable-background:new" id="g3589" transform="translate(-212.47336,-436.70578)"><g id="g3591" transform="translate(-257.81235,-8.7992622)"><g transform="matrix(1.0798685,0,0,1,148.45783,396.84175)" style="opacity:.23214285" id="g3593"><path id="path3595" d="M 337 89.3125 A 16.75 3.6875 0 1 1 303.5,89.3125 A 16.75 3.6875 0 1 1 337 89.3125 z" transform="matrix(1.3081204,0,0,1.3081204,-98.675563,-27.519004)" style="opacity:1;color:#000;fill:url(#radialGradient3619);fill-opacity:1;fill-rule:nonzero;stroke:none;stroke-width:1;stroke-linecap:butt;stroke-linejoin:miter;marker:none;marker-start:none;marker-mid:none;marker-end:none;stroke-miterlimit:4;stroke-dasharray:none;stroke-dashoffset:0;stroke-opacity:1;visibility:visible;display:inline;overflow:visible;filter:url(#filter7651);enable-background:accumulate"/><path style="opacity:.75595236;color:#000;fill:url(#radialGradient3621);fill-opacity:1;fill-rule:nonzero;stroke:none;stroke-width:1;stroke-linecap:butt;stroke-linejoin:miter;marker:none;marker-start:none;marker-mid:none;marker-end:none;stroke-miterlimit:4;stroke-dasharray:none;stroke-dashoffset:0;stroke-opacity:1;visibility:visible;display:inline;overflow:visible;enable-background:accumulate" id="path3597" d="M 337 89.3125 A 16.75 3.6875 0 1 1 303.5,89.3125 A 16.75 3.6875 0 1 1 337 89.3125 z" transform="matrix(0.6439186,0,0,0.7199367,122.71668,25.013154)"/><path id="path3599" d="M 337 89.3125 A 16.75 3.6875 0 1 1 303.5,89.3125 A 16.75 3.6875 0 1 1 337 89.3125 z" transform="matrix(0.4013667,0,0,0.4487503,179.32654,49.733493)" style="opacity:.75595236;color:#000;fill:url(#radialGradient3623);fill-opacity:1;fill-rule:nonzero;stroke:none;stroke-width:1;stroke-linecap:butt;stroke-linejoin:miter;marker:none;marker-start:none;marker-mid:none;marker-end:none;stroke-miterlimit:4;stroke-dasharray:none;stroke-dashoffset:0;stroke-opacity:1;visibility:visible;display:inline;overflow:visible;filter:url(#filter7917);enable-background:accumulate"/></g><g id="g3601" transform="translate(1362.1847,634.98951)"><path style="fill:url(#linearGradient3625);fill-opacity:1;fill-rule:evenodd;stroke:#3b6aa3;stroke-width:1.20000005;stroke-linecap:butt;stroke-linejoin:miter;stroke-miterlimit:4;stroke-dasharray:none;stroke-opacity:1" id="path3603" d="M -853.11996,-186.35737 C -855.92364,-185.20608 -864.91426,-181.45708 -865.13842,-181.36352 C -867.65377,-183.41771 -870.92533,-185.01375 -874.31381,-185.19429 C -882.53327,-185.71118 -890.09334,-178.41182 -890.11689,-170.31429 C -890.47773,-163.0241 -887.15044,-156.2816 -884.14458,-149.84045 C -881.62987,-150.8896 -872.4859,-154.7009 -872.25535,-154.79737 C -869.78664,-152.73433 -866.62492,-151.21409 -863.32919,-150.97583 C -855.24139,-150.29719 -847.72469,-157.28415 -847.31381,-165.19121 C -846.72674,-172.58766 -850.13645,-179.42988 -852.99996,-186.04352 C -853.04164,-186.1467 -853.07832,-186.25418 -853.11996,-186.35737 z"/><path id="path3605" d="M -875.375,-181.59375 C -880.28683,-181.59319 -886.49153,-176.90112 -886.4375,-169.65625 C -886.38523,-162.64396 -884.05497,-158.85618 -882.28125,-154.5625 L -877.03125,-156.75 C -878.23675,-159.21943 -879.78646,-161.68394 -880.34375,-162.90625 C -881.90393,-166.32873 -882.474,-167.86017 -882.34375,-170.46875 C -882.2178,-172.99075 -881.37713,-174.54443 -879.84375,-176.03125 C -878.31034,-177.51793 -876.18923,-178.2568 -873.65625,-177.90625 C -868.29177,-177.16305 -866.56552,-173.10293 -866.4375,-171.125 C -866.33213,-169.49819 -867.50361,-165.49174 -871.625,-165.6875 C -874.48212,-165.82345 -876.0881,-167.40721 -876.28125,-170.09375 C -876.42354,-172.07375 -874.50765,-174.07232 -871.40625,-173.0625 C -870.90705,-172.90006 -870.8733,-173.79529 -871.4375,-174.25 C -872.89006,-175.42058 -878.64445,-174.97309 -878.625,-170.375 C -878.60697,-166.11394 -875.1985,-163.2691 -871.90625,-163.25 C -865.01125,-163.20942 -863.65725,-168.65233 -863.90625,-172.40625 C -864.18214,-176.56594 -869.42819,-181.59444 -875.375,-181.59375 z" transform="translate(0,1)" style="opacity:.26785715;fill:#000;fill-opacity:1;fill-rule:evenodd;stroke:none;stroke-width:.85000002;stroke-linecap:butt;stroke-linejoin:miter;stroke-miterlimit:4;stroke-dasharray:none;stroke-opacity:1;filter:url(#filter7817)" xlink:href="#path3497"/><path style="fill:#eeeeec;fill-opacity:1;fill-rule:evenodd;stroke:none;stroke-width:.85000002;stroke-linecap:butt;stroke-linejoin:miter;stroke-miterlimit:4;stroke-dasharray:none;stroke-opacity:1" id="path3607" d="M -882.26964,-154.56487 C -884.04337,-158.85855 -886.39489,-162.64246 -886.44716,-169.65475 C -886.50117,-176.89962 -880.28643,-181.59015 -875.3746,-181.59071 C -869.42776,-181.5914 -864.1955,-176.56944 -863.91961,-172.40975 C -863.67062,-168.65582 -865.00645,-163.1963 -871.90145,-163.23688 C -875.19368,-163.25598 -878.61459,-166.12002 -878.63262,-170.38108 C -878.65208,-174.97916 -872.89198,-175.42773 -871.43942,-174.25715 C -870.87519,-173.80245 -870.89244,-172.90266 -871.39164,-173.0651 C -874.49306,-174.07491 -876.40908,-172.08472 -876.26679,-170.10472 C -876.07363,-167.41818 -874.47976,-165.81981 -871.62264,-165.68386 C -867.50123,-165.48809 -866.34743,-169.49635 -866.4528,-171.12316 C -866.58084,-173.10108 -868.30538,-177.16916 -873.66986,-177.91236 C -876.20284,-178.2629 -878.3021,-177.50422 -879.83551,-176.01754 C -881.36889,-174.53073 -882.23097,-172.99329 -882.35692,-170.47129 C -882.48718,-167.8627 -881.91766,-166.3321 -880.35748,-162.90962 C -879.80019,-161.68731 -878.24354,-159.22123 -877.03804,-156.7518 L -882.26964,-154.56487 z"/><path id="path3609" d="M -854.9661,-180.31037 C -853.19235,-176.0164 -850.84085,-172.23264 -850.78857,-165.2202 C -850.73454,-157.97533 -856.94932,-153.2848 -861.86113,-153.28453 C -867.80798,-153.28341 -873.04024,-158.30566 -873.31612,-162.46493 C -873.5651,-166.21927 -872.22929,-171.67893 -865.33427,-171.63808 C -862.04204,-171.61897 -858.62113,-168.75493 -858.6031,-164.49401 C -858.58365,-159.89607 -864.34375,-159.44723 -865.79631,-160.61794 C -866.36053,-161.07264 -866.34331,-161.97229 -865.84408,-161.80999 C -862.74267,-160.80005 -860.82667,-162.79051 -860.96896,-164.77038 C -861.16211,-167.45691 -862.75597,-169.055 -865.61309,-169.19095 C -869.73449,-169.38672 -870.8883,-165.37832 -870.78294,-163.75179 C -870.6549,-161.77388 -868.93037,-157.70552 -863.56586,-156.96288 C -861.03289,-156.61219 -858.93363,-157.37087 -857.40024,-158.85755 C -855.86683,-160.3445 -855.00474,-161.88194 -854.8788,-164.40352 C -854.74854,-167.01225 -855.31808,-168.54271 -856.87826,-171.9652 C -857.43554,-173.18792 -858.99221,-175.65345 -860.19768,-178.12316 L -854.9661,-180.31037 z" style="opacity:.77380952;fill:#33649d;fill-opacity:1;fill-rule:evenodd;stroke:none;stroke-width:.85000002;stroke-linecap:butt;stroke-linejoin:miter;stroke-miterlimit:4;stroke-dasharray:none;stroke-opacity:1;filter:url(#filter7743)"/><path style="fill:#a9c4e3;fill-opacity:1;fill-rule:evenodd;stroke:none;stroke-width:.85000002;stroke-linecap:butt;stroke-linejoin:miter;stroke-miterlimit:4;stroke-dasharray:none;stroke-opacity:1" id="path3611" d="M -855.12143,-181.59071 C -853.34768,-177.29674 -850.99618,-173.51298 -850.9439,-166.50054 C -850.88987,-159.25567 -857.10465,-154.56514 -862.01646,-154.56487 C -867.96331,-154.56375 -873.19557,-159.586 -873.47145,-163.74527 C -873.72043,-167.49961 -872.38462,-172.95927 -865.4896,-172.91842 C -862.19737,-172.89931 -858.77646,-170.03527 -858.75843,-165.77435 C -858.73898,-161.17641 -864.49908,-160.72757 -865.95164,-161.89828 C -866.51586,-162.35298 -866.49864,-163.25263 -865.99941,-163.09033 C -862.898,-162.08039 -860.982,-164.07085 -861.12429,-166.05072 C -861.31744,-168.73725 -862.9113,-170.33534 -865.76842,-170.47129 C -869.88982,-170.66706 -871.04363,-166.65866 -870.93827,-165.03213 C -870.81023,-163.05422 -869.0857,-158.98586 -863.72119,-158.24322 C -861.18822,-157.89253 -859.08896,-158.65121 -857.55557,-160.13789 C -856.02216,-161.62484 -855.16007,-163.16228 -855.03413,-165.68386 C -854.90387,-168.29259 -855.47341,-169.82305 -857.03359,-173.24554 C -857.59087,-174.46826 -859.14754,-176.93379 -860.35301,-179.4035 L -855.12143,-181.59071 z"/><path style="fill:#eeeeec;fill-opacity:1;fill-rule:evenodd;stroke:none;stroke-width:.85000002;stroke-linecap:butt;stroke-linejoin:miter;stroke-miterlimit:4;stroke-dasharray:none;stroke-opacity:1" id="path3613" d="M -875.38304,-181.606 C -880.29487,-181.60544 -886.49955,-176.91337 -886.44554,-169.6685 C -886.39327,-162.65621 -884.03177,-158.86843 -882.25804,-154.57475 L -877.03929,-156.76225 C -877.50526,-157.71678 -878.01513,-158.63036 -878.50804,-159.51225 L -879.66429,-159.51225 L -879.66429,-161.606 C -879.94834,-162.11768 -880.19536,-162.57539 -880.35179,-162.9185 C -881.91197,-166.34098 -882.48205,-167.87241 -882.35179,-170.481 C -882.22584,-173.003 -881.35392,-174.52544 -879.82054,-176.01225 C -878.28713,-177.49893 -876.19727,-178.26904 -873.66429,-177.9185 C -871.12744,-177.56704 -869.41423,-176.46564 -868.28929,-175.19975 L -867.22679,-175.19975 L -867.22679,-173.63725 C -866.74312,-172.70349 -866.48868,-171.8036 -866.44554,-171.13725 C -866.39873,-170.41449 -866.6267,-169.22262 -867.22679,-168.13725 L -867.22679,-164.4185 C -864.37657,-166.22286 -863.73734,-169.75075 -863.91429,-172.4185 C -864.19018,-176.57819 -869.4362,-181.60669 -875.38304,-181.606 z"/><path id="path3615" d="M -853.84375,-184.625 C -857.35288,-183.17746 -864.48196,-180.21595 -864.625,-180.15625 C -865.07352,-179.96843 -865.58878,-180.04032 -865.96875,-180.34375 C -868.30329,-182.25028 -871.35203,-183.71393 -874.375,-183.875 C -874.38542,-183.87488 -874.39583,-183.87488 -874.40625,-183.875 C -881.7925,-184.33949 -888.7601,-177.58355 -888.78125,-170.3125 C -888.78076,-170.29167 -888.78076,-170.27083 -888.78125,-170.25 C -889.1001,-163.8083 -886.27875,-157.64874 -883.4375,-151.5625 C -880.10234,-152.95414 -872.92953,-155.95613 -872.75,-156.03125 C -872.30148,-156.21907 -871.78622,-156.14718 -871.40625,-155.84375 C -869.11326,-153.92758 -866.19463,-152.49413 -863.25,-152.28125 C -863.23958,-152.28137 -863.22917,-152.28137 -863.21875,-152.28125 C -855.95785,-151.67199 -849.02552,-158.14361 -848.65625,-165.25 C -848.64601,-165.26059 -848.63559,-165.27101 -848.625,-165.28125 C -848.09946,-171.90282 -851.06412,-178.26073 -853.84375,-184.625 z" style="opacity:.4107143;fill:none;fill-opacity:1;fill-rule:evenodd;stroke:url(#linearGradient3627);stroke-width:1.20000005;stroke-linecap:butt;stroke-linejoin:miter;stroke-miterlimit:4;stroke-dasharray:none;stroke-opacity:1" xlink:href="#path3493"/></g></g><rect style="opacity:.2;fill:none;fill-opacity:1;stroke:none;stroke-width:2.17700005;stroke-miterlimit:4;stroke-dasharray:none;stroke-opacity:1" id="rect3617" width="48" height="48" x="212.473" y="436.706"/></g></g></svg>