<svg xmlns="http://www.w3.org/2000/svg" xmlns:cc="http://web.resource.org/cc/" xmlns:svg="http://www.w3.org/2000/svg" xmlns:xlink="http://www.w3.org/1999/xlink" id="svg2" width="149.36" height="130.738" version="1.0"><defs id="defs4"><linearGradient id="linearGradient26173"><stop id="stop26175" style="stop-color:#3465a4;stop-opacity:1" offset="0"/><stop offset=".5" style="stop-color:#a4bedd;stop-opacity:1" id="stop26179"/><stop id="stop26177" style="stop-color:#fff;stop-opacity:0" offset="1"/></linearGradient><linearGradient id="linearGradient6745"><stop offset="0" style="stop-color:#d2458c;stop-opacity:1" id="stop6747"/><stop offset=".5" style="stop-color:#1f2fcc;stop-opacity:1" id="stop6757"/><stop offset=".75" style="stop-color:#66d72d;stop-opacity:1" id="stop6759"/><stop offset=".875" style="stop-color:#f1e830;stop-opacity:1" id="stop6761"/><stop offset="1" style="stop-color:#de1a1a;stop-opacity:1" id="stop6749"/></linearGradient><linearGradient id="linearGradient6679"><stop offset="0" style="stop-color:#ececec;stop-opacity:1" id="stop6681"/><stop offset="1" style="stop-color:#fff;stop-opacity:1" id="stop6683"/></linearGradient><linearGradient id="linearGradient5968"><stop offset="0" style="stop-color:#000;stop-opacity:1" id="stop5970"/><stop offset="1" style="stop-color:#7d7d7d;stop-opacity:1" id="stop5972"/></linearGradient><linearGradient id="linearGradient5719"><stop offset="0" style="stop-color:#3465a4;stop-opacity:1" id="stop5721"/><stop offset="1" style="stop-color:#80a6d8;stop-opacity:1" id="stop5723"/></linearGradient><linearGradient id="linearGradient5110"><stop offset="0" style="stop-color:#fce94f;stop-opacity:1" id="stop5112"/><stop offset="1" style="stop-color:#fef296;stop-opacity:1" id="stop5114"/></linearGradient><linearGradient id="linearGradient4541"><stop offset="0" style="stop-color:#ef2929;stop-opacity:1" id="stop4543"/><stop offset="1" style="stop-color:#fff;stop-opacity:1" id="stop4545"/></linearGradient><linearGradient id="linearGradient4518"><stop offset="0" style="stop-color:#000;stop-opacity:1" id="stop4520"/><stop offset="1" style="stop-color:#000;stop-opacity:0" id="stop4522"/></linearGradient><linearGradient id="linearGradient4504"><stop offset="0" style="stop-color:#000;stop-opacity:1" id="stop4506"/><stop offset="1" style="stop-color:#000;stop-opacity:0" id="stop4508"/></linearGradient><linearGradient id="linearGradient4496"><stop offset="0" style="stop-color:#666;stop-opacity:1" id="stop4498"/><stop offset="1" style="stop-color:#666;stop-opacity:0" id="stop4500"/></linearGradient><linearGradient id="linearGradient3704"><stop offset="0" style="stop-color:#fff;stop-opacity:1" id="stop3706"/><stop offset="1" style="stop-color:#fff;stop-opacity:0" id="stop3708"/></linearGradient><linearGradient id="linearGradient5436"><stop offset="0" style="stop-color:#fff;stop-opacity:1" id="stop5438"/><stop offset="1" style="stop-color:#cfcfcf;stop-opacity:1" id="stop5444"/></linearGradient><linearGradient id="linearGradient5187"><stop offset="0" style="stop-color:#fff;stop-opacity:1" id="stop5189"/><stop offset="1" style="stop-color:#fff;stop-opacity:.5181818" id="stop5191"/></linearGradient><linearGradient id="linearGradient5164"><stop offset="0" style="stop-color:#555753;stop-opacity:.40909091" id="stop5166"/><stop offset="1" style="stop-color:#555753;stop-opacity:0" id="stop5168"/></linearGradient><linearGradient id="linearGradient5092"><stop offset="0" style="stop-color:#c6ccce;stop-opacity:1" id="stop5094"/><stop offset="1" style="stop-color:#4d5759;stop-opacity:1" id="stop5096"/></linearGradient><linearGradient id="linearGradient3919"><stop offset="0" style="stop-color:#ff8282;stop-opacity:1" id="stop3921"/><stop offset="1" style="stop-color:#fffe74;stop-opacity:1" id="stop3923"/></linearGradient><linearGradient id="linearGradient3868"><stop offset="0" style="stop-color:red;stop-opacity:1" id="stop3870"/><stop offset="1" style="stop-color:#ff0;stop-opacity:1" id="stop3872"/></linearGradient><linearGradient id="linearGradient2953"><stop offset="0" style="stop-color:#ef2929;stop-opacity:1" id="stop2955"/><stop offset="1" style="stop-color:#ffa2a2;stop-opacity:1" id="stop2957"/></linearGradient><linearGradient id="linearGradient2939"><stop offset="0" style="stop-color:#3465a4;stop-opacity:1" id="stop2941"/><stop offset="1" style="stop-color:#bcd1ef;stop-opacity:1" id="stop2943"/></linearGradient><linearGradient id="linearGradient2882"><stop offset="0" style="stop-color:#b30000;stop-opacity:1" id="stop2884"/><stop offset="1" style="stop-color:#dfdc00;stop-opacity:1" id="stop2886"/></linearGradient><linearGradient id="linearGradient5313"><stop offset="0" style="stop-color:#5c3566;stop-opacity:0" id="stop5315"/><stop offset="1" style="stop-color:#204a87;stop-opacity:1" id="stop5317"/></linearGradient><linearGradient id="linearGradient5305"><stop offset="0" style="stop-color:#000;stop-opacity:1" id="stop5307"/><stop offset="1" style="stop-color:#000;stop-opacity:0" id="stop5309"/></linearGradient><linearGradient id="linearGradient2316"><stop offset="0" style="stop-color:#5c3566;stop-opacity:1" id="stop2326"/><stop offset="1" style="stop-color:#ad7fa8;stop-opacity:1" id="stop2320"/></linearGradient><linearGradient id="linearGradient2294"><stop offset="0" style="stop-color:#16335e;stop-opacity:1" id="stop2296"/><stop offset="1" style="stop-color:#306fcb;stop-opacity:1" id="stop2298"/></linearGradient><linearGradient id="linearGradient2490" x1="131.436" x2="347.268" y1="227.407" y2="227.407" gradientTransform="matrix(0,1,-1,0,-149.9852,336.2071)" gradientUnits="userSpaceOnUse" xlink:href="#linearGradient2294"/><linearGradient id="linearGradient2498" x1="107.939" x2="290.632" y1="200.219" y2="200.219" gradientTransform="matrix(0,1,-1,0,-178.7874,406.4936)" gradientUnits="userSpaceOnUse" xlink:href="#linearGradient2316"/><linearGradient id="linearGradient2502" x1="131.436" x2="347.268" y1="227.407" y2="227.407" gradientTransform="matrix(0,1,-1,0,-149.9852,336.2071)" gradientUnits="userSpaceOnUse" xlink:href="#linearGradient2294"/><linearGradient id="linearGradient2506" x1="131.436" x2="347.268" y1="227.407" y2="227.407" gradientTransform="matrix(0,1,-1,0,-149.9852,336.2071)" gradientUnits="userSpaceOnUse" xlink:href="#linearGradient2294"/><linearGradient id="linearGradient2510" x1="107.939" x2="290.632" y1="200.219" y2="200.219" gradientTransform="matrix(0,1,-1,0,-178.7874,406.4936)" gradientUnits="userSpaceOnUse" xlink:href="#linearGradient2316"/><linearGradient id="linearGradient2514" x1="107.939" x2="290.632" y1="200.219" y2="200.219" gradientTransform="matrix(0,1,-1,0,-178.7874,406.4936)" gradientUnits="userSpaceOnUse" xlink:href="#linearGradient2316"/><linearGradient id="linearGradient2518" x1="131.436" x2="347.268" y1="227.407" y2="227.407" gradientTransform="matrix(0,1,-1,0,-149.9852,336.2071)" gradientUnits="userSpaceOnUse" xlink:href="#linearGradient2294"/><linearGradient id="linearGradient2522" x1="131.436" x2="347.268" y1="227.407" y2="227.407" gradientTransform="matrix(0,1,-1,0,-149.9852,336.2071)" gradientUnits="userSpaceOnUse" xlink:href="#linearGradient2294"/><linearGradient id="linearGradient2526" x1="107.939" x2="290.632" y1="200.219" y2="200.219" gradientTransform="matrix(0,1,-1,0,-178.7874,406.4936)" gradientUnits="userSpaceOnUse" xlink:href="#linearGradient2316"/><linearGradient id="linearGradient2530" x1="107.939" x2="290.632" y1="200.219" y2="200.219" gradientTransform="matrix(0,1,-1,0,-178.7874,406.4936)" gradientUnits="userSpaceOnUse" xlink:href="#linearGradient2316"/><linearGradient id="linearGradient2534" x1="131.436" x2="347.268" y1="227.407" y2="227.407" gradientTransform="matrix(0,1,-1,0,-152.0055,291.7604)" gradientUnits="userSpaceOnUse" xlink:href="#linearGradient2294"/><linearGradient id="linearGradient2552" x1="-313.987" x2="-98.155" y1="583.651" y2="583.651" gradientTransform="translate(731.3505,54.54824)" gradientUnits="userSpaceOnUse" xlink:href="#linearGradient2294"/><linearGradient id="linearGradient2566" x1="-313.987" x2="-98.155" y1="583.651" y2="583.651" gradientTransform="translate(-92.93399,12.12184)" gradientUnits="userSpaceOnUse" xlink:href="#linearGradient2294"/><linearGradient id="linearGradient2570" x1="201.93" x2="418.195" y1="227.407" y2="227.407" gradientTransform="translate(-465.6258,370.3867)" gradientUnits="userSpaceOnUse" xlink:href="#linearGradient2316"/><linearGradient id="linearGradient2574" x1="201.93" x2="418.195" y1="227.407" y2="227.407" gradientTransform="translate(-465.6258,370.3867)" gradientUnits="userSpaceOnUse" xlink:href="#linearGradient2316"/><linearGradient id="linearGradient2578" x1="-313.987" x2="-98.155" y1="583.651" y2="583.651" gradientTransform="translate(-92.93399,12.12184)" gradientUnits="userSpaceOnUse" xlink:href="#linearGradient2294"/><linearGradient id="linearGradient2582" x1="-313.987" x2="-98.155" y1="583.651" y2="583.651" gradientTransform="translate(-92.93399,12.12184)" gradientUnits="userSpaceOnUse" xlink:href="#linearGradient2294"/><linearGradient id="linearGradient2586" x1="201.93" x2="418.195" y1="227.407" y2="227.407" gradientTransform="translate(-465.6258,370.3867)" gradientUnits="userSpaceOnUse" xlink:href="#linearGradient2316"/><linearGradient id="linearGradient2590" x1="201.93" x2="418.195" y1="227.407" y2="227.407" gradientTransform="translate(-465.6258,370.3867)" gradientUnits="userSpaceOnUse" xlink:href="#linearGradient2316"/><linearGradient id="linearGradient2594" x1="-313.987" x2="-98.155" y1="583.651" y2="583.651" gradientTransform="translate(-92.93399,12.12184)" gradientUnits="userSpaceOnUse" xlink:href="#linearGradient2294"/><linearGradient id="linearGradient2598" x1="-313.987" x2="-98.155" y1="583.651" y2="583.651" gradientTransform="translate(-92.93399,12.12184)" gradientUnits="userSpaceOnUse" xlink:href="#linearGradient2294"/><linearGradient id="linearGradient2602" x1="201.93" x2="418.195" y1="227.407" y2="227.407" gradientTransform="translate(-465.6258,370.3867)" gradientUnits="userSpaceOnUse" xlink:href="#linearGradient2316"/><linearGradient id="linearGradient2606" x1="201.93" x2="418.195" y1="227.407" y2="227.407" gradientTransform="translate(-465.6258,370.3867)" gradientUnits="userSpaceOnUse" xlink:href="#linearGradient2316"/><linearGradient id="linearGradient2610" x1="-313.987" x2="-98.155" y1="583.651" y2="583.651" gradientTransform="translate(-92.93399,12.12184)" gradientUnits="userSpaceOnUse" xlink:href="#linearGradient2294"/><linearGradient id="linearGradient2614" x1="-313.987" x2="-98.155" y1="583.651" y2="583.651" gradientTransform="translate(-92.93399,12.12184)" gradientUnits="userSpaceOnUse" xlink:href="#linearGradient2294"/><linearGradient id="linearGradient2618" x1="201.93" x2="418.195" y1="227.407" y2="227.407" gradientTransform="translate(-465.6258,370.3867)" gradientUnits="userSpaceOnUse" xlink:href="#linearGradient2316"/><linearGradient id="linearGradient2622" x1="201.93" x2="418.195" y1="227.407" y2="227.407" gradientTransform="translate(-465.6258,370.3867)" gradientUnits="userSpaceOnUse" xlink:href="#linearGradient2316"/><linearGradient id="linearGradient2626" x1="-313.987" x2="-98.155" y1="583.651" y2="583.651" gradientTransform="translate(-92.93399,12.12184)" gradientUnits="userSpaceOnUse" xlink:href="#linearGradient2294"/><linearGradient id="linearGradient2630" x1="-313.987" x2="-98.155" y1="583.651" y2="583.651" gradientTransform="translate(-92.93399,12.12184)" gradientUnits="userSpaceOnUse" xlink:href="#linearGradient2294"/><linearGradient id="linearGradient2634" x1="201.93" x2="418.195" y1="227.407" y2="227.407" gradientTransform="translate(-465.6258,368.3664)" gradientUnits="userSpaceOnUse" xlink:href="#linearGradient2316"/><linearGradient id="linearGradient2638" x1="201.93" x2="418.195" y1="227.407" y2="227.407" gradientTransform="translate(-465.6258,368.3664)" gradientUnits="userSpaceOnUse" xlink:href="#linearGradient2316"/><linearGradient id="linearGradient2642" x1="-313.987" x2="-98.155" y1="583.651" y2="583.651" gradientTransform="translate(-92.93399,12.12184)" gradientUnits="userSpaceOnUse" xlink:href="#linearGradient2294"/><linearGradient id="linearGradient2646" x1="-313.987" x2="-98.155" y1="583.651" y2="583.651" gradientTransform="translate(-92.93399,12.12184)" gradientUnits="userSpaceOnUse" xlink:href="#linearGradient2294"/><linearGradient id="linearGradient2650" x1="201.93" x2="418.195" y1="227.407" y2="227.407" gradientTransform="translate(-465.6258,368.3664)" gradientUnits="userSpaceOnUse" xlink:href="#linearGradient2316"/><linearGradient id="linearGradient2654" x1="201.93" x2="418.195" y1="227.407" y2="227.407" gradientTransform="translate(-465.6258,368.3664)" gradientUnits="userSpaceOnUse" xlink:href="#linearGradient2316"/><linearGradient id="linearGradient2658" x1="-313.987" x2="-98.155" y1="583.651" y2="583.651" gradientTransform="translate(-92.93399,12.12184)" gradientUnits="userSpaceOnUse" xlink:href="#linearGradient2294"/><linearGradient id="linearGradient2662" x1="-313.987" x2="-98.155" y1="583.651" y2="583.651" gradientTransform="translate(-92.93399,12.12184)" gradientUnits="userSpaceOnUse" xlink:href="#linearGradient2294"/><linearGradient id="linearGradient2666" x1="201.93" x2="418.195" y1="227.407" y2="227.407" gradientTransform="translate(-465.6258,368.3664)" gradientUnits="userSpaceOnUse" xlink:href="#linearGradient2316"/><linearGradient id="linearGradient2670" x1="201.93" x2="418.195" y1="227.407" y2="227.407" gradientTransform="translate(-467.2469,368.3664)" gradientUnits="userSpaceOnUse" xlink:href="#linearGradient2316"/><linearGradient id="linearGradient2674" x1="-313.987" x2="-98.155" y1="583.651" y2="583.651" gradientTransform="translate(-92.93399,12.33831)" gradientUnits="userSpaceOnUse" xlink:href="#linearGradient2294"/><linearGradient id="linearGradient2678" x1="-313.987" x2="-98.155" y1="583.651" y2="583.651" gradientTransform="translate(-92.93398,12.33837)" gradientUnits="userSpaceOnUse" xlink:href="#linearGradient2294"/><linearGradient id="linearGradient2694" x1="-313.987" x2="-98.155" y1="583.651" y2="583.651" gradientTransform="translate(-93.11909,-200.9056)" gradientUnits="userSpaceOnUse" xlink:href="#linearGradient2294"/><linearGradient id="linearGradient3712" x1="-230.155" x2="-89.845" y1="797.375" y2="797.375" gradientTransform="matrix(1,0,0,0.99711,0.252538,2.429552)" gradientUnits="userSpaceOnUse" xlink:href="#linearGradient2316"/><linearGradient id="linearGradient4333" x1="-250.391" x2="-109.609" y1="727.359" y2="727.359" gradientTransform="matrix(1,0,0,1.002543,-144.2838,202.1652)" gradientUnits="userSpaceOnUse" xlink:href="#linearGradient2294"/><linearGradient id="linearGradient4335" x1="-230.155" x2="-89.845" y1="797.375" y2="797.375" gradientTransform="matrix(1,0,0,0.99711,-144.0312,206.5536)" gradientUnits="userSpaceOnUse" xlink:href="#linearGradient2316"/><linearGradient id="linearGradient5233" x1="-230.155" x2="-89.845" y1="797.375" y2="797.375" gradientTransform="matrix(1,0,0,0.99711,-385.4824,-205.8633)" gradientUnits="userSpaceOnUse" xlink:href="#linearGradient2316"/><linearGradient id="linearGradient5243" x1="-250.391" x2="-109.609" y1="727.359" y2="727.359" gradientTransform="matrix(1,0,0,1.002543,-81.55484,263.7425)" gradientUnits="userSpaceOnUse" xlink:href="#linearGradient2294"/><linearGradient id="linearGradient5245" x1="-230.155" x2="-89.845" y1="797.375" y2="797.375" gradientTransform="matrix(1,0,0,0.99711,-81.3023,268.1308)" gradientUnits="userSpaceOnUse" xlink:href="#linearGradient2316"/><linearGradient id="linearGradient5253" x1="-250.391" x2="-109.609" y1="727.359" y2="727.359" gradientTransform="matrix(1,0,0,1.002543,-81.55484,263.7425)" gradientUnits="userSpaceOnUse" xlink:href="#linearGradient2294"/><linearGradient id="linearGradient5255" x1="-230.155" x2="-89.845" y1="797.375" y2="797.375" gradientTransform="matrix(1,0,0,0.99711,-81.3023,268.1308)" gradientUnits="userSpaceOnUse" xlink:href="#linearGradient2316"/><linearGradient id="linearGradient5267" x1="-200.389" x2="-126.276" y1="730.886" y2="806.959" gradientTransform="matrix(0.707107,-0.707107,0.708905,0.708905,-653.0184,363.2062)" gradientUnits="userSpaceOnUse" xlink:href="#linearGradient2294"/><linearGradient id="linearGradient5269" x1="-188.234" x2="-111.815" y1="744.188" y2="820.423" gradientTransform="matrix(0.707107,-0.707107,0.705063,0.705063,-611.3509,366.1307)" gradientUnits="userSpaceOnUse" xlink:href="#linearGradient2316"/><linearGradient id="linearGradient5291" x1="-250.391" x2="-109.609" y1="727.359" y2="727.359" gradientTransform="matrix(0.707107,-0.707107,0.708905,0.708905,-650.3466,676.0633)" gradientUnits="userSpaceOnUse" xlink:href="#linearGradient2294"/><linearGradient id="linearGradient5293" x1="-230.155" x2="-89.845" y1="797.375" y2="797.375" gradientTransform="matrix(0.707107,-0.707107,0.705063,0.705063,-647.0649,678.9878)" gradientUnits="userSpaceOnUse" xlink:href="#linearGradient2316"/><linearGradient id="linearGradient5333" x1="-250.391" x2="-109.609" y1="727.359" y2="727.359" gradientTransform="matrix(0.707107,-0.707107,0.708905,0.708905,-581.9715,818.062)" gradientUnits="userSpaceOnUse" xlink:href="#linearGradient2294"/><linearGradient id="linearGradient5335" x1="-230.155" x2="-89.845" y1="797.375" y2="797.375" gradientTransform="matrix(0.707107,-0.707107,0.705063,0.705063,-578.6898,820.9865)" gradientUnits="userSpaceOnUse" xlink:href="#linearGradient2316"/><linearGradient id="linearGradient5337" x1="-402.5" x2="-394.107" y1="1111.291" y2="1133.076" gradientTransform="matrix(-0.707107,0.707107,-0.707107,-0.707107,341.6382,2545.021)" gradientUnits="userSpaceOnUse" xlink:href="#linearGradient5305"/><linearGradient id="linearGradient5339" x1="-397.946" x2="-397.946" y1="1096.85" y2="1123.589" gradientTransform="matrix(-0.707107,0.707107,-0.707107,-0.707107,341.6382,2545.021)" gradientUnits="userSpaceOnUse" xlink:href="#linearGradient5313"/><linearGradient id="linearGradient3944" x1="1029.854" x2="786.347" y1="2703.791" y2="2703.791" gradientTransform="translate(-14.16893,642.4957)" gradientUnits="userSpaceOnUse" xlink:href="#linearGradient2953"/><linearGradient id="linearGradient5170" x1="1651.429" x2="1651.429" y1="-2988.933" y2="-3097.22" gradientTransform="translate(332.85714,-404.85714)" gradientUnits="userSpaceOnUse" xlink:href="#linearGradient5164"/><linearGradient id="linearGradient5298" x1="1607.152" x2="1605.132" y1="3759.519" y2="3653.557" gradientUnits="userSpaceOnUse" xlink:href="#linearGradient5164"/><linearGradient id="linearGradient5312" x1="1607.152" x2="1605.132" y1="3759.519" y2="3653.557" gradientUnits="userSpaceOnUse" xlink:href="#linearGradient5164"/><linearGradient id="linearGradient5318" x1="1607.152" x2="1605.132" y1="3759.519" y2="3653.557" gradientTransform="translate(-1384.3006,-7627.1717)" gradientUnits="userSpaceOnUse" xlink:href="#linearGradient5164"/><linearGradient id="linearGradient5406" x1="1607.152" x2="1605.132" y1="3759.519" y2="3653.557" gradientTransform="translate(-1367.2189,-7892.6832)" gradientUnits="userSpaceOnUse" xlink:href="#linearGradient5164"/><linearGradient id="linearGradient3710" x1="307.115" x2="305.706" y1="6493.089" y2="6417.015" gradientTransform="translate(659.31126,-75.344653)" gradientUnits="userSpaceOnUse" xlink:href="#linearGradient3704"/><linearGradient id="linearGradient3742" x1="-36.283" x2="122.891" y1="4613.473" y2="4763.054" gradientTransform="matrix(0.5067265,-0.4483367,-0.4483367,-0.5067265,2812.1234,8681.6626)" gradientUnits="userSpaceOnUse" xlink:href="#linearGradient2939"/><linearGradient id="linearGradient3823" x1="-36.283" x2="122.891" y1="4613.473" y2="4763.054" gradientTransform="matrix(0.5067265,-0.4483367,-0.4483367,-0.5067265,2879.7451,8769.0073)" gradientUnits="userSpaceOnUse" xlink:href="#linearGradient2939"/><linearGradient id="linearGradient3853" x1="-9471.934" x2="-9478.977" y1="-86.833" y2="137.25" gradientTransform="matrix(0.7071068,-0.7071068,-0.7071068,-0.7071068,7668.2913,-642.22226)" gradientUnits="userSpaceOnUse" xlink:href="#linearGradient2939"/><linearGradient id="linearGradient4502" x1="605.251" x2="931.248" y1="10347.943" y2="10347.943" gradientUnits="userSpaceOnUse" xlink:href="#linearGradient4496"/><linearGradient id="linearGradient4510" x1="943.753" x2="1426.513" y1="10358.98" y2="10358.98" gradientUnits="userSpaceOnUse" xlink:href="#linearGradient4504"/><linearGradient id="linearGradient4524" x1="1436.477" x2="610.965" y1="10345.827" y2="10345.827" gradientUnits="userSpaceOnUse" xlink:href="#linearGradient4518"/><filter id="filter5948"><feGaussianBlur id="feGaussianBlur5950" stdDeviation="4.902"/></filter><linearGradient id="linearGradient5966" x1="4040.604" x2="3190.155" y1="17365.137" y2="17365.137" gradientTransform="translate(-324.67695,-2743.1992)" gradientUnits="userSpaceOnUse" xlink:href="#linearGradient5968"/><linearGradient id="linearGradient6006" x1="2204.974" x2="2018.627" y1="14982.902" y2="14828.812" gradientTransform="matrix(-1,0,0,1,5061.6207,2811.093)" gradientUnits="userSpaceOnUse" xlink:href="#linearGradient5719"/><linearGradient id="linearGradient6040" x1="4040.604" x2="3190.155" y1="17365.137" y2="17365.137" gradientTransform="translate(-319.75455,-3979.3868)" gradientUnits="userSpaceOnUse" xlink:href="#linearGradient5968"/><linearGradient id="linearGradient6090" x1="4040.604" x2="3190.155" y1="17365.137" y2="17365.137" gradientTransform="translate(-316.53207,-3363.4229)" gradientUnits="userSpaceOnUse" xlink:href="#linearGradient5968"/><linearGradient id="linearGradient6122" x1="2272.785" x2="1992.588" y1="14917.993" y2="14902.347" gradientTransform="matrix(-0.8598309,0.5105787,-0.5105787,-0.8598309,12467.066,30395.642)" gradientUnits="userSpaceOnUse" xlink:href="#linearGradient5719"/><linearGradient id="linearGradient6124" x1="4040.604" x2="3190.155" y1="17365.137" y2="17365.137" gradientTransform="translate(-317.01813,-4574.426)" gradientUnits="userSpaceOnUse" xlink:href="#linearGradient5968"/><linearGradient id="linearGradient6176" x1="4040.604" x2="3190.155" y1="17365.137" y2="17365.137" gradientTransform="translate(-308.86913,-2076.3903)" gradientUnits="userSpaceOnUse" xlink:href="#linearGradient5968"/><linearGradient id="linearGradient6214" x1="4040.604" x2="3190.155" y1="17365.137" y2="17365.137" gradientTransform="translate(-264.18365,-1459.7304)" gradientUnits="userSpaceOnUse" xlink:href="#linearGradient5968"/><linearGradient id="linearGradient6246" x1="4040.604" x2="3190.155" y1="17365.137" y2="17365.137" gradientTransform="translate(-191.45829,4956.4573)" gradientUnits="userSpaceOnUse" xlink:href="#linearGradient5968"/><linearGradient id="linearGradient6345" x1="4040.604" x2="3190.155" y1="17365.137" y2="17365.137" gradientTransform="translate(-191.45829,4956.4573)" gradientUnits="userSpaceOnUse" xlink:href="#linearGradient5968"/><linearGradient id="linearGradient6434" x1="4040.604" x2="3190.155" y1="17365.137" y2="17365.137" gradientTransform="translate(-191.45829,4956.4573)" gradientUnits="userSpaceOnUse" xlink:href="#linearGradient5968"/><linearGradient id="linearGradient6452" x1="4040.604" x2="3190.155" y1="17365.137" y2="17365.137" gradientTransform="matrix(1.3866792,0,0,1.3866792,-2284.0369,-124.16586)" gradientUnits="userSpaceOnUse" xlink:href="#linearGradient5968"/><linearGradient id="linearGradient6685" x1="3280.251" x2="1392.908" y1="23224.379" y2="23224.379" gradientTransform="matrix(0.9102094,0,0,1.9976628,2059.4799,-24918.094)" gradientUnits="userSpaceOnUse" xlink:href="#linearGradient6679"/><linearGradient id="linearGradient6729" x1="3280.251" x2="1392.908" y1="23224.379" y2="23224.379" gradientTransform="matrix(1.017094,0,0,1.6666667,1427.37,-13588.57)" gradientUnits="userSpaceOnUse" xlink:href="#linearGradient6679"/><linearGradient id="linearGradient6731" x1="4040.604" x2="3190.155" y1="17365.137" y2="17365.137" gradientTransform="translate(-191.45829,4956.4573)" gradientUnits="userSpaceOnUse" xlink:href="#linearGradient5968"/><linearGradient id="linearGradient6733" x1="2030.602" x2="2229.214" y1="15000.34" y2="14834.177" gradientTransform="matrix(-1,0,0,1,4960.7149,7384.9209)" gradientUnits="userSpaceOnUse" xlink:href="#linearGradient5719"/><linearGradient id="linearGradient6679-71"><stop offset="0" style="stop-color:#131313;stop-opacity:1" id="stop7212"/><stop offset="1" style="stop-color:#000;stop-opacity:1" id="stop7214"/></linearGradient><linearGradient id="linearGradient6731-421" x1="4040.604" x2="3190.155" y1="17365.137" y2="17365.137" gradientTransform="translate(-191.45829,4956.4573)" gradientUnits="userSpaceOnUse" xlink:href="#linearGradient5968-728"/><linearGradient id="linearGradient5968-728"><stop offset="0" style="stop-color:#fff;stop-opacity:1" id="stop7218"/><stop offset="1" style="stop-color:#828282;stop-opacity:1" id="stop7220"/></linearGradient><linearGradient id="linearGradient6731-260" x1="4040.604" x2="3190.155" y1="17365.137" y2="17365.137" gradientTransform="translate(-191.45829,4956.4573)" gradientUnits="userSpaceOnUse" xlink:href="#linearGradient5968-143"/><linearGradient id="linearGradient5968-143"><stop offset="0" style="stop-color:#fff;stop-opacity:1" id="stop7224"/><stop offset="1" style="stop-color:#828282;stop-opacity:1" id="stop7226"/></linearGradient><linearGradient id="linearGradient6731-325" x1="4040.604" x2="3190.155" y1="17365.137" y2="17365.137" gradientTransform="translate(-191.45829,4956.4573)" gradientUnits="userSpaceOnUse" xlink:href="#linearGradient5968-262"/><linearGradient id="linearGradient5968-262"><stop offset="0" style="stop-color:#fff;stop-opacity:1" id="stop7230"/><stop offset="1" style="stop-color:#828282;stop-opacity:1" id="stop7232"/></linearGradient><linearGradient id="linearGradient5719-784"><stop offset="0" style="stop-color:#cb9a5b;stop-opacity:1" id="stop7236"/><stop offset="1" style="stop-color:#7f5927;stop-opacity:1" id="stop7238"/></linearGradient><linearGradient id="linearGradient13988" x1="4040.604" x2="3190.155" y1="17365.137" y2="17365.137" gradientTransform="translate(-191.45829,4956.4573)" gradientUnits="userSpaceOnUse" xlink:href="#linearGradient5968"/><linearGradient id="linearGradient13990" x1="2030.602" x2="2229.214" y1="15000.34" y2="14834.177" gradientTransform="matrix(-1,0,0,1,4960.7149,7384.9209)" gradientUnits="userSpaceOnUse" xlink:href="#linearGradient5719"/><linearGradient id="linearGradient13988-330" x1="4040.604" x2="3190.155" y1="17365.137" y2="17365.137" gradientTransform="translate(-191.45829,4956.4573)" gradientUnits="userSpaceOnUse" xlink:href="#linearGradient5968-915"/><linearGradient id="linearGradient5968-915"><stop offset="0" style="stop-color:#000;stop-opacity:1" id="stop14343"/><stop offset="1" style="stop-color:#7d7d7d;stop-opacity:1" id="stop14345"/></linearGradient><linearGradient id="linearGradient13988-364" x1="4040.604" x2="3190.155" y1="17365.137" y2="17365.137" gradientTransform="translate(-191.45829,4956.4573)" gradientUnits="userSpaceOnUse" xlink:href="#linearGradient5968-738"/><linearGradient id="linearGradient5968-738"><stop offset="0" style="stop-color:#000;stop-opacity:1" id="stop14349"/><stop offset="1" style="stop-color:#7d7d7d;stop-opacity:1" id="stop14351"/></linearGradient><linearGradient id="linearGradient13988-724" x1="4040.604" x2="3190.155" y1="17365.137" y2="17365.137" gradientTransform="translate(-191.45829,4956.4573)" gradientUnits="userSpaceOnUse" xlink:href="#linearGradient5968-244"/><linearGradient id="linearGradient5968-244"><stop offset="0" style="stop-color:#000;stop-opacity:1" id="stop14355"/><stop offset="1" style="stop-color:#7d7d7d;stop-opacity:1" id="stop14357"/></linearGradient><linearGradient id="linearGradient13990-317" x1="2030.602" x2="2229.214" y1="15000.34" y2="14834.177" gradientTransform="matrix(-1,0,0,1,4960.7149,7384.9209)" gradientUnits="userSpaceOnUse" xlink:href="#linearGradient5719-611"/><linearGradient id="linearGradient5719-611"><stop offset="0" style="stop-color:#6c6c6c;stop-opacity:1" id="stop14361"/><stop offset="1" style="stop-color:#acacac;stop-opacity:1" id="stop14363"/></linearGradient><linearGradient id="linearGradient18751" x1="4040.604" x2="3190.155" y1="17365.137" y2="17365.137" gradientTransform="translate(-191.45829,4956.4573)" gradientUnits="userSpaceOnUse" xlink:href="#linearGradient5968"/><linearGradient id="linearGradient18753" x1="2030.602" x2="2229.214" y1="15000.34" y2="14834.177" gradientTransform="matrix(-1,0,0,1,4960.7149,7384.9209)" gradientUnits="userSpaceOnUse" xlink:href="#linearGradient5719"/><linearGradient id="linearGradient21160" x1="4040.604" x2="3190.155" y1="17365.137" y2="17365.137" gradientTransform="translate(-191.45829,4956.4573)" gradientUnits="userSpaceOnUse" xlink:href="#linearGradient5968"/><linearGradient id="linearGradient25937" x1="4040.604" x2="3190.155" y1="17365.137" y2="17365.137" gradientTransform="matrix(1.3866792,0,0,1.3866792,495.88665,-11491.368)" gradientUnits="userSpaceOnUse" xlink:href="#linearGradient5968"/><linearGradient id="linearGradient26045" x1="4040.604" x2="3190.155" y1="17365.137" y2="17365.137" gradientTransform="matrix(1.6595909,0,0,1.6595909,-3400.209,-7255.3125)" gradientUnits="userSpaceOnUse" xlink:href="#linearGradient5968"/><linearGradient id="linearGradient26066" x1="4040.604" x2="3190.155" y1="17365.137" y2="17365.137" gradientTransform="matrix(1.6595909,0,0,1.6595909,-3400.209,-7255.3125)" gradientUnits="userSpaceOnUse" xlink:href="#linearGradient5968"/><linearGradient id="linearGradient26068" x1="2030.602" x2="2229.214" y1="15000.34" y2="14834.177" gradientTransform="matrix(-1.6540236,0,0,1.6651768,5131.177,-3226.6324)" gradientUnits="userSpaceOnUse" xlink:href="#linearGradient5719"/><radialGradient id="radialGradient26171" cx="4829.688" cy="20774.236" r="422.813" fx="4829.688" fy="20774.236" gradientTransform="matrix(1,0,0,0.8337029,0,3454.6956)" gradientUnits="userSpaceOnUse" xlink:href="#linearGradient26173"/><linearGradient id="linearGradient26206" x1="4040.604" x2="3190.155" y1="17365.137" y2="17365.137" gradientTransform="matrix(1.6595909,0,0,1.6595909,-3400.209,-7255.3125)" gradientUnits="userSpaceOnUse" xlink:href="#linearGradient5968"/><linearGradient id="linearGradient26208" x1="2030.602" x2="2229.214" y1="15000.34" y2="14834.177" gradientTransform="matrix(-1.6540236,0,0,1.6651768,5131.177,-3226.6324)" gradientUnits="userSpaceOnUse" xlink:href="#linearGradient5719"/><linearGradient id="linearGradient26230" x1="4040.604" x2="3190.155" y1="17365.137" y2="17365.137" gradientTransform="matrix(1.6595909,0,0,1.6595909,-3400.209,-7255.3125)" gradientUnits="userSpaceOnUse" xlink:href="#linearGradient5968"/><linearGradient id="linearGradient26232" x1="2030.602" x2="2229.214" y1="15000.34" y2="14834.177" gradientTransform="matrix(-1.6540236,0,0,1.6651768,5131.177,-3226.6324)" gradientUnits="userSpaceOnUse" xlink:href="#linearGradient5719"/><linearGradient id="linearGradient26248" x1="4040.604" x2="3190.155" y1="17365.137" y2="17365.137" gradientTransform="matrix(1.1801936,0,0,1.1801936,-1154.3031,-6481.6275)" gradientUnits="userSpaceOnUse" xlink:href="#linearGradient5968"/><filter id="filter26253"><feGaussianBlur id="feGaussianBlur26255" stdDeviation="4.785"/></filter><linearGradient id="linearGradient2519" x1="4040.604" x2="3190.155" y1="17365.137" y2="17365.137" gradientTransform="matrix(1.1801936,0,0,1.1801936,-715.29259,-7152.2127)" gradientUnits="userSpaceOnUse" xlink:href="#linearGradient5968"/><linearGradient id="linearGradient2542" x1="4040.604" x2="3190.155" y1="17365.137" y2="17365.137" gradientTransform="matrix(1.1801936,0,0,1.1801936,-715.29259,-7152.2127)" gradientUnits="userSpaceOnUse" xlink:href="#linearGradient5968"/><linearGradient id="linearGradient3505" x1="4040.604" x2="3190.155" y1="17365.137" y2="17365.137" gradientTransform="matrix(0.561523,0,0,0.561523,-1578.9246,-9563.3758)" gradientUnits="userSpaceOnUse" xlink:href="#linearGradient5968"/><linearGradient id="linearGradient3507" x1="2030.602" x2="2229.214" y1="15000.34" y2="14834.177" gradientTransform="matrix(-0.5640686,0,0,0.5589889,1319.2134,-8155.3901)" gradientUnits="userSpaceOnUse" xlink:href="#linearGradient5719"/><linearGradient id="linearGradient2923" x1="4040.604" x2="3190.155" y1="17365.137" y2="17365.137" gradientTransform="matrix(0.561523,0,0,0.561523,-1578.9246,-9563.3758)" gradientUnits="userSpaceOnUse" xlink:href="#linearGradient5968"/><linearGradient id="linearGradient2410" x1="2030.602" x2="2229.214" y1="15000.34" y2="14834.177" gradientTransform="matrix(-0.5640686,0,0,0.5589889,1578.8964,-8161.8367)" gradientUnits="userSpaceOnUse" xlink:href="#linearGradient5719"/><linearGradient id="linearGradient2420" x1="4040.604" x2="3190.155" y1="17365.137" y2="17365.137" gradientTransform="matrix(0.561523,0,0,0.561523,-1577.7834,-9556.5291)" gradientUnits="userSpaceOnUse" xlink:href="#linearGradient5968"/></defs><metadata id="metadata7"/><g id="layer1" transform="translate(-305.6326,-112.30873)"><g style="opacity:.26106196;fill:#000;filter:url(#filter26253)" id="g3483" transform="matrix(-0.5640686,0,0,0.5589889,1774.5235,-7236.0471)"><path style="fill:#000;fill-opacity:1;fill-rule:evenodd;stroke:none;stroke-width:1px;stroke-linecap:butt;stroke-linejoin:miter;stroke-opacity:1" id="path3485" d="M 2373.804,13160.401 C 2356.6178,13200.455 2336.1868,13241.918 2339.7103,13286.713 C 2342.1763,13334.601 2387.2913,13376.906 2435.8326,13372.796 C 2456.2296,13371.308 2475.7313,13361.553 2490.7416,13348.463 C 2494.388,13354.447 2503.0196,13353.956 2508.4736,13357.675 C 2525.8955,13365.012 2543.3186,13372.347 2560.7416,13379.682 C 2578.7821,13340.673 2598.751,13299.834 2596.5853,13255.682 C 2596.444,13206.64 2551.073,13162.426 2501.7416,13165.557 C 2480.6787,13166.689 2460.3795,13177.037 2445.0853,13190.119 C 2442.5715,13184.275 2434.5532,13185.216 2430.0305,13181.845 C 2411.5623,13174.015 2393.0854,13166.205 2374.554,13158.526 C 2374.304,13159.151 2374.0541,13159.776 2373.804,13160.401 z"/><path style="fill:#000;fill-opacity:1;fill-rule:evenodd;stroke:none;stroke-width:1px;stroke-linecap:butt;stroke-linejoin:miter;stroke-opacity:1" id="path3487" d="M 2386.5945,13187.394 C 2375.9489,13213.4 2361.8357,13236.316 2361.5219,13278.785 C 2361.1977,13322.662 2398.4973,13351.07 2427.977,13351.072 C 2463.6687,13351.078 2495.0715,13320.662 2496.7273,13295.472 C 2498.2217,13272.734 2490.2044,13239.669 2448.822,13239.916 C 2429.0628,13240.032 2408.5313,13257.377 2408.423,13283.183 C 2408.3063,13311.03 2442.8771,13313.748 2451.5951,13306.658 C 2454.9814,13303.904 2454.878,13298.455 2451.8818,13299.438 C 2433.2678,13305.555 2421.7684,13293.5 2422.6224,13281.51 C 2423.7816,13265.239 2433.3476,13255.56 2450.4954,13254.737 C 2475.2312,13253.551 2482.1561,13277.827 2481.5237,13287.678 C 2480.7553,13299.657 2470.405,13324.296 2438.2084,13328.794 C 2423.0061,13330.918 2410.4068,13326.323 2401.2037,13317.32 C 2392.0005,13308.314 2386.8265,13299.003 2386.0706,13283.731 C 2385.2888,13267.932 2388.707,13258.663 2398.0709,13237.935 C 2401.4156,13230.53 2410.7583,13215.598 2417.9933,13200.64 L 2386.5945,13187.394 z"/><path style="fill:#000;fill-opacity:1;fill-rule:evenodd;stroke:none;stroke-width:1px;stroke-linecap:butt;stroke-linejoin:miter;stroke-opacity:1" id="path3489" d="M 2549.5322,13351.072 C 2560.1777,13325.067 2574.291,13302.151 2574.6047,13259.682 C 2574.9289,13215.805 2537.6294,13187.397 2508.1496,13187.394 C 2472.458,13187.39 2441.0551,13217.804 2439.3993,13242.997 C 2437.9049,13265.732 2445.9222,13298.797 2487.3046,13298.551 C 2507.0638,13298.435 2527.5953,13281.09 2527.7036,13255.283 C 2527.8204,13227.436 2493.2495,13224.719 2484.5315,13231.809 C 2481.1452,13234.562 2481.2487,13240.012 2484.2448,13239.028 C 2502.8589,13232.912 2514.3583,13244.966 2513.5043,13256.957 C 2512.3451,13273.228 2502.779,13282.908 2485.6312,13283.731 C 2460.8954,13284.917 2453.9706,13260.641 2454.6029,13250.789 C 2455.3714,13238.81 2465.7217,13214.172 2497.9182,13209.672 C 2513.1206,13207.549 2525.7198,13212.143 2534.923,13221.147 C 2544.1261,13230.152 2549.3001,13239.463 2550.056,13254.737 C 2550.8378,13270.535 2547.4197,13279.805 2538.0558,13300.533 C 2534.7111,13307.936 2525.3684,13322.871 2518.1333,13337.826 L 2549.5322,13351.072 z"/><path style="fill:#000;fill-opacity:1;fill-rule:evenodd;stroke:none;stroke-width:1px;stroke-linecap:butt;stroke-linejoin:miter;stroke-opacity:1" id="path3491" d="M 2386.5741,13187.394 C 2375.9286,13213.4 2361.8357,13236.336 2361.5219,13278.806 C 2361.1977,13322.683 2398.4974,13351.091 2427.9772,13351.094 C 2463.669,13351.098 2495.0715,13320.682 2496.7273,13295.491 C 2498.0538,13275.31 2491.8333,13246.975 2461.4918,13241.035 L 2458.7665,13255.378 C 2476.8034,13259.27 2482.0791,13279.049 2481.5239,13287.698 C 2480.7556,13299.677 2470.405,13324.316 2438.2084,13328.814 C 2423.0061,13330.937 2410.407,13326.345 2401.2038,13317.34 C 2392.0008,13308.336 2386.8042,13299.003 2386.0481,13283.731 C 2385.2665,13267.932 2388.6845,13258.657 2398.0484,13237.929 C 2401.3931,13230.525 2410.7498,13215.595 2417.9849,13200.637 L 2386.5741,13187.394 z"/></g><path style="fill:url(#linearGradient2410);fill-opacity:1;fill-rule:evenodd;stroke:none;stroke-width:1px;stroke-linecap:butt;stroke-linejoin:miter;stroke-opacity:1" id="path3493" d="M 431.38786,113.35716 C 441.08206,135.7471 452.60652,158.92395 450.61905,183.96399 C 449.22806,210.73269 423.78006,234.38112 396.39946,232.08364 C 384.89413,231.25188 373.89387,225.79872 365.427,218.48143 C 363.37019,221.8264 358.50137,221.55214 355.42494,223.63106 C 345.59781,227.73225 335.77001,231.8325 325.94221,235.93275 C 315.76611,214.12675 304.50229,191.29827 305.7239,166.61793 C 305.80361,139.20441 331.39595,114.48914 359.22225,116.23904 C 371.1032,116.87207 382.55333,122.65613 391.18033,129.96917 C 392.59827,126.70209 397.12114,127.22843 399.67223,125.344 C 410.08955,120.96712 420.5118,116.60111 430.9648,112.30873 C 431.10579,112.65805 431.24678,113.00784 431.38786,113.35716 z"/><path style="fill:#bad0e8;fill-opacity:1;fill-rule:evenodd;stroke:none;stroke-width:1px;stroke-linecap:butt;stroke-linejoin:miter;stroke-opacity:1" id="path3495" d="M 424.17311,128.44586 C 430.17799,142.98272 438.13879,155.79235 438.31579,179.53236 C 438.4987,204.05928 417.4591,219.93866 400.83055,219.9396 C 380.69798,219.94338 362.98463,202.94098 362.05065,188.86012 C 361.20774,176.1501 365.73003,157.66687 389.07254,157.80518 C 400.21811,157.86985 411.7993,167.56582 411.86035,181.99081 C 411.92619,197.55675 392.42587,199.07629 387.50833,195.11293 C 385.59822,193.57357 385.65653,190.52788 387.34662,191.07735 C 397.84618,194.49643 404.33264,187.75788 403.85093,181.0552 C 403.19705,171.96016 397.80115,166.54996 388.12863,166.08971 C 374.17595,165.42695 370.26983,178.99705 370.62652,184.50354 C 371.05999,191.19961 376.89823,204.9727 395.05935,207.48685 C 403.6345,208.67406 410.74136,206.10562 415.93253,201.0726 C 421.12376,196.03863 424.04229,190.83377 424.46866,182.29717 C 424.90966,173.46553 422.98151,168.28428 417.69964,156.69774 C 415.81303,152.55831 410.54306,144.21148 406.46205,135.85048 L 424.17311,128.44586 z"/><path style="fill:#eeeeec;fill-opacity:1;fill-rule:evenodd;stroke:none;stroke-width:1px;stroke-linecap:butt;stroke-linejoin:miter;stroke-opacity:1" id="path3497" d="M 332.26509,219.9396 C 326.2603,205.40368 318.29941,192.59359 318.12245,168.85405 C 317.9396,144.32713 338.97909,128.44774 355.60769,128.44586 C 375.74021,128.4435 393.45361,145.44495 394.38759,159.52723 C 395.23055,172.23584 390.70821,190.71859 367.36575,190.58122 C 356.22018,190.51655 344.63899,180.82059 344.57794,166.39513 C 344.51205,150.82871 364.01241,149.31012 368.92991,153.273 C 370.84007,154.81237 370.78166,157.85852 369.09166,157.30858 C 358.59207,153.88997 352.10556,160.62758 352.58727,167.33073 C 353.24119,176.42578 358.6371,181.83692 368.30965,182.29717 C 382.26234,182.95993 386.16841,169.3903 385.81171,163.88286 C 385.37825,157.18679 379.53996,143.41465 361.37894,140.89861 C 352.80374,139.71187 345.69688,142.28031 340.50566,147.31334 C 335.31453,152.34683 332.39601,157.55169 331.96964,166.08971 C 331.52864,174.92087 333.45669,180.1026 338.73855,191.68913 C 340.62521,195.82715 345.89513,204.17587 349.97624,212.53593 L 332.26509,219.9396 z"/><path style="fill:#bad0e8;fill-opacity:1;fill-rule:evenodd;stroke:none;stroke-width:1px;stroke-linecap:butt;stroke-linejoin:miter;stroke-opacity:1" id="path3499" d="M 424.18466,128.44586 C 430.18945,142.98272 438.13879,155.80368 438.31579,179.54416 C 438.4987,204.07108 417.4591,219.95046 400.83045,219.95235 C 380.69784,219.95471 362.98463,202.95231 362.05065,188.8705 C 361.3024,177.58986 364.81121,161.75107 381.92588,158.43018 L 383.46319,166.448 C 373.28911,168.62369 370.31328,179.67964 370.62643,184.51487 C 371.0598,191.21094 376.89823,204.98356 395.05935,207.49818 C 403.6345,208.68445 410.74126,206.1179 415.93249,201.0844 C 421.12362,196.0509 424.05485,190.83377 424.48132,182.29717 C 424.92222,173.46553 422.99422,168.28098 417.71235,156.69397 C 415.82569,152.55548 410.54786,144.20959 406.4668,135.84859 L 424.18466,128.44586 z"/></g><path style="fill:none;fill-opacity:1;stroke:#000;stroke-width:1px;stroke-linecap:butt;stroke-linejoin:miter;stroke-opacity:1" id="path22354" d="M 5013.53,-22111.487 L 5013.53,-22211.487 L 5056.9019,-22285.4 L 5096.6106,-22301.738 L 5056.9019,-22285.4 L 5061.544,-22331.071 L 5056.9019,-22285.4 L 5013.53,-22211.487 L 4991.7349,-22258.035 L 4993.0905,-22302.463 L 4991.7349,-22258.035 L 4955.8931,-22282.675 L 4991.7349,-22258.035 L 5013.53,-22211.487 L 5013.53,-22111.487"/></svg>