<svg xmlns="http://www.w3.org/2000/svg" xmlns:cc="http://web.resource.org/cc/" xmlns:svg="http://www.w3.org/2000/svg" xmlns:xlink="http://www.w3.org/1999/xlink" id="svg2" width="764.559" height="254.116" version="1.0"><defs id="defs4"><linearGradient id="linearGradient26173"><stop id="stop26175" style="stop-color:#3465a4;stop-opacity:1" offset="0"/><stop offset=".5" style="stop-color:#a4bedd;stop-opacity:1" id="stop26179"/><stop id="stop26177" style="stop-color:#fff;stop-opacity:0" offset="1"/></linearGradient><linearGradient id="linearGradient6745"><stop offset="0" style="stop-color:#d2458c;stop-opacity:1" id="stop6747"/><stop offset=".5" style="stop-color:#1f2fcc;stop-opacity:1" id="stop6757"/><stop offset=".75" style="stop-color:#66d72d;stop-opacity:1" id="stop6759"/><stop offset=".875" style="stop-color:#f1e830;stop-opacity:1" id="stop6761"/><stop offset="1" style="stop-color:#de1a1a;stop-opacity:1" id="stop6749"/></linearGradient><linearGradient id="linearGradient6679"><stop offset="0" style="stop-color:#ececec;stop-opacity:1" id="stop6681"/><stop offset="1" style="stop-color:#fff;stop-opacity:1" id="stop6683"/></linearGradient><linearGradient id="linearGradient5968"><stop offset="0" style="stop-color:#000;stop-opacity:1" id="stop5970"/><stop offset="1" style="stop-color:#7d7d7d;stop-opacity:1" id="stop5972"/></linearGradient><linearGradient id="linearGradient5719"><stop offset="0" style="stop-color:#3465a4;stop-opacity:1" id="stop5721"/><stop offset="1" style="stop-color:#80a6d8;stop-opacity:1" id="stop5723"/></linearGradient><linearGradient id="linearGradient5110"><stop offset="0" style="stop-color:#fce94f;stop-opacity:1" id="stop5112"/><stop offset="1" style="stop-color:#fef296;stop-opacity:1" id="stop5114"/></linearGradient><linearGradient id="linearGradient4541"><stop offset="0" style="stop-color:#ef2929;stop-opacity:1" id="stop4543"/><stop offset="1" style="stop-color:#fff;stop-opacity:1" id="stop4545"/></linearGradient><linearGradient id="linearGradient4518"><stop offset="0" style="stop-color:#000;stop-opacity:1" id="stop4520"/><stop offset="1" style="stop-color:#000;stop-opacity:0" id="stop4522"/></linearGradient><linearGradient id="linearGradient4504"><stop offset="0" style="stop-color:#000;stop-opacity:1" id="stop4506"/><stop offset="1" style="stop-color:#000;stop-opacity:0" id="stop4508"/></linearGradient><linearGradient id="linearGradient4496"><stop offset="0" style="stop-color:#666;stop-opacity:1" id="stop4498"/><stop offset="1" style="stop-color:#666;stop-opacity:0" id="stop4500"/></linearGradient><linearGradient id="linearGradient3704"><stop offset="0" style="stop-color:#fff;stop-opacity:1" id="stop3706"/><stop offset="1" style="stop-color:#fff;stop-opacity:0" id="stop3708"/></linearGradient><linearGradient id="linearGradient5436"><stop offset="0" style="stop-color:#fff;stop-opacity:1" id="stop5438"/><stop offset="1" style="stop-color:#cfcfcf;stop-opacity:1" id="stop5444"/></linearGradient><linearGradient id="linearGradient5187"><stop offset="0" style="stop-color:#fff;stop-opacity:1" id="stop5189"/><stop offset="1" style="stop-color:#fff;stop-opacity:.5181818" id="stop5191"/></linearGradient><linearGradient id="linearGradient5164"><stop offset="0" style="stop-color:#555753;stop-opacity:.40909091" id="stop5166"/><stop offset="1" style="stop-color:#555753;stop-opacity:0" id="stop5168"/></linearGradient><linearGradient id="linearGradient5092"><stop offset="0" style="stop-color:#c6ccce;stop-opacity:1" id="stop5094"/><stop offset="1" style="stop-color:#4d5759;stop-opacity:1" id="stop5096"/></linearGradient><linearGradient id="linearGradient3919"><stop offset="0" style="stop-color:#ff8282;stop-opacity:1" id="stop3921"/><stop offset="1" style="stop-color:#fffe74;stop-opacity:1" id="stop3923"/></linearGradient><linearGradient id="linearGradient3868"><stop offset="0" style="stop-color:red;stop-opacity:1" id="stop3870"/><stop offset="1" style="stop-color:#ff0;stop-opacity:1" id="stop3872"/></linearGradient><linearGradient id="linearGradient2953"><stop offset="0" style="stop-color:#ef2929;stop-opacity:1" id="stop2955"/><stop offset="1" style="stop-color:#ffa2a2;stop-opacity:1" id="stop2957"/></linearGradient><linearGradient id="linearGradient2939"><stop offset="0" style="stop-color:#3465a4;stop-opacity:1" id="stop2941"/><stop offset="1" style="stop-color:#bcd1ef;stop-opacity:1" id="stop2943"/></linearGradient><linearGradient id="linearGradient2882"><stop offset="0" style="stop-color:#b30000;stop-opacity:1" id="stop2884"/><stop offset="1" style="stop-color:#dfdc00;stop-opacity:1" id="stop2886"/></linearGradient><linearGradient id="linearGradient5313"><stop offset="0" style="stop-color:#5c3566;stop-opacity:0" id="stop5315"/><stop offset="1" style="stop-color:#204a87;stop-opacity:1" id="stop5317"/></linearGradient><linearGradient id="linearGradient5305"><stop offset="0" style="stop-color:#000;stop-opacity:1" id="stop5307"/><stop offset="1" style="stop-color:#000;stop-opacity:0" id="stop5309"/></linearGradient><linearGradient id="linearGradient2316"><stop offset="0" style="stop-color:#5c3566;stop-opacity:1" id="stop2326"/><stop offset="1" style="stop-color:#ad7fa8;stop-opacity:1" id="stop2320"/></linearGradient><linearGradient id="linearGradient2294"><stop offset="0" style="stop-color:#16335e;stop-opacity:1" id="stop2296"/><stop offset="1" style="stop-color:#306fcb;stop-opacity:1" id="stop2298"/></linearGradient><linearGradient id="linearGradient2490" x1="131.436" x2="347.268" y1="227.407" y2="227.407" gradientTransform="matrix(0,1,-1,0,-149.9852,336.2071)" gradientUnits="userSpaceOnUse" xlink:href="#linearGradient2294"/><linearGradient id="linearGradient2498" x1="107.939" x2="290.632" y1="200.219" y2="200.219" gradientTransform="matrix(0,1,-1,0,-178.7874,406.4936)" gradientUnits="userSpaceOnUse" xlink:href="#linearGradient2316"/><linearGradient id="linearGradient2502" x1="131.436" x2="347.268" y1="227.407" y2="227.407" gradientTransform="matrix(0,1,-1,0,-149.9852,336.2071)" gradientUnits="userSpaceOnUse" xlink:href="#linearGradient2294"/><linearGradient id="linearGradient2506" x1="131.436" x2="347.268" y1="227.407" y2="227.407" gradientTransform="matrix(0,1,-1,0,-149.9852,336.2071)" gradientUnits="userSpaceOnUse" xlink:href="#linearGradient2294"/><linearGradient id="linearGradient2510" x1="107.939" x2="290.632" y1="200.219" y2="200.219" gradientTransform="matrix(0,1,-1,0,-178.7874,406.4936)" gradientUnits="userSpaceOnUse" xlink:href="#linearGradient2316"/><linearGradient id="linearGradient2514" x1="107.939" x2="290.632" y1="200.219" y2="200.219" gradientTransform="matrix(0,1,-1,0,-178.7874,406.4936)" gradientUnits="userSpaceOnUse" xlink:href="#linearGradient2316"/><linearGradient id="linearGradient2518" x1="131.436" x2="347.268" y1="227.407" y2="227.407" gradientTransform="matrix(0,1,-1,0,-149.9852,336.2071)" gradientUnits="userSpaceOnUse" xlink:href="#linearGradient2294"/><linearGradient id="linearGradient2522" x1="131.436" x2="347.268" y1="227.407" y2="227.407" gradientTransform="matrix(0,1,-1,0,-149.9852,336.2071)" gradientUnits="userSpaceOnUse" xlink:href="#linearGradient2294"/><linearGradient id="linearGradient2526" x1="107.939" x2="290.632" y1="200.219" y2="200.219" gradientTransform="matrix(0,1,-1,0,-178.7874,406.4936)" gradientUnits="userSpaceOnUse" xlink:href="#linearGradient2316"/><linearGradient id="linearGradient2530" x1="107.939" x2="290.632" y1="200.219" y2="200.219" gradientTransform="matrix(0,1,-1,0,-178.7874,406.4936)" gradientUnits="userSpaceOnUse" xlink:href="#linearGradient2316"/><linearGradient id="linearGradient2534" x1="131.436" x2="347.268" y1="227.407" y2="227.407" gradientTransform="matrix(0,1,-1,0,-152.0055,291.7604)" gradientUnits="userSpaceOnUse" xlink:href="#linearGradient2294"/><linearGradient id="linearGradient2552" x1="-313.987" x2="-98.155" y1="583.651" y2="583.651" gradientTransform="translate(731.3505,54.54824)" gradientUnits="userSpaceOnUse" xlink:href="#linearGradient2294"/><linearGradient id="linearGradient2566" x1="-313.987" x2="-98.155" y1="583.651" y2="583.651" gradientTransform="translate(-92.93399,12.12184)" gradientUnits="userSpaceOnUse" xlink:href="#linearGradient2294"/><linearGradient id="linearGradient2570" x1="201.93" x2="418.195" y1="227.407" y2="227.407" gradientTransform="translate(-465.6258,370.3867)" gradientUnits="userSpaceOnUse" xlink:href="#linearGradient2316"/><linearGradient id="linearGradient2574" x1="201.93" x2="418.195" y1="227.407" y2="227.407" gradientTransform="translate(-465.6258,370.3867)" gradientUnits="userSpaceOnUse" xlink:href="#linearGradient2316"/><linearGradient id="linearGradient2578" x1="-313.987" x2="-98.155" y1="583.651" y2="583.651" gradientTransform="translate(-92.93399,12.12184)" gradientUnits="userSpaceOnUse" xlink:href="#linearGradient2294"/><linearGradient id="linearGradient2582" x1="-313.987" x2="-98.155" y1="583.651" y2="583.651" gradientTransform="translate(-92.93399,12.12184)" gradientUnits="userSpaceOnUse" xlink:href="#linearGradient2294"/><linearGradient id="linearGradient2586" x1="201.93" x2="418.195" y1="227.407" y2="227.407" gradientTransform="translate(-465.6258,370.3867)" gradientUnits="userSpaceOnUse" xlink:href="#linearGradient2316"/><linearGradient id="linearGradient2590" x1="201.93" x2="418.195" y1="227.407" y2="227.407" gradientTransform="translate(-465.6258,370.3867)" gradientUnits="userSpaceOnUse" xlink:href="#linearGradient2316"/><linearGradient id="linearGradient2594" x1="-313.987" x2="-98.155" y1="583.651" y2="583.651" gradientTransform="translate(-92.93399,12.12184)" gradientUnits="userSpaceOnUse" xlink:href="#linearGradient2294"/><linearGradient id="linearGradient2598" x1="-313.987" x2="-98.155" y1="583.651" y2="583.651" gradientTransform="translate(-92.93399,12.12184)" gradientUnits="userSpaceOnUse" xlink:href="#linearGradient2294"/><linearGradient id="linearGradient2602" x1="201.93" x2="418.195" y1="227.407" y2="227.407" gradientTransform="translate(-465.6258,370.3867)" gradientUnits="userSpaceOnUse" xlink:href="#linearGradient2316"/><linearGradient id="linearGradient2606" x1="201.93" x2="418.195" y1="227.407" y2="227.407" gradientTransform="translate(-465.6258,370.3867)" gradientUnits="userSpaceOnUse" xlink:href="#linearGradient2316"/><linearGradient id="linearGradient2610" x1="-313.987" x2="-98.155" y1="583.651" y2="583.651" gradientTransform="translate(-92.93399,12.12184)" gradientUnits="userSpaceOnUse" xlink:href="#linearGradient2294"/><linearGradient id="linearGradient2614" x1="-313.987" x2="-98.155" y1="583.651" y2="583.651" gradientTransform="translate(-92.93399,12.12184)" gradientUnits="userSpaceOnUse" xlink:href="#linearGradient2294"/><linearGradient id="linearGradient2618" x1="201.93" x2="418.195" y1="227.407" y2="227.407" gradientTransform="translate(-465.6258,370.3867)" gradientUnits="userSpaceOnUse" xlink:href="#linearGradient2316"/><linearGradient id="linearGradient2622" x1="201.93" x2="418.195" y1="227.407" y2="227.407" gradientTransform="translate(-465.6258,370.3867)" gradientUnits="userSpaceOnUse" xlink:href="#linearGradient2316"/><linearGradient id="linearGradient2626" x1="-313.987" x2="-98.155" y1="583.651" y2="583.651" gradientTransform="translate(-92.93399,12.12184)" gradientUnits="userSpaceOnUse" xlink:href="#linearGradient2294"/><linearGradient id="linearGradient2630" x1="-313.987" x2="-98.155" y1="583.651" y2="583.651" gradientTransform="translate(-92.93399,12.12184)" gradientUnits="userSpaceOnUse" xlink:href="#linearGradient2294"/><linearGradient id="linearGradient2634" x1="201.93" x2="418.195" y1="227.407" y2="227.407" gradientTransform="translate(-465.6258,368.3664)" gradientUnits="userSpaceOnUse" xlink:href="#linearGradient2316"/><linearGradient id="linearGradient2638" x1="201.93" x2="418.195" y1="227.407" y2="227.407" gradientTransform="translate(-465.6258,368.3664)" gradientUnits="userSpaceOnUse" xlink:href="#linearGradient2316"/><linearGradient id="linearGradient2642" x1="-313.987" x2="-98.155" y1="583.651" y2="583.651" gradientTransform="translate(-92.93399,12.12184)" gradientUnits="userSpaceOnUse" xlink:href="#linearGradient2294"/><linearGradient id="linearGradient2646" x1="-313.987" x2="-98.155" y1="583.651" y2="583.651" gradientTransform="translate(-92.93399,12.12184)" gradientUnits="userSpaceOnUse" xlink:href="#linearGradient2294"/><linearGradient id="linearGradient2650" x1="201.93" x2="418.195" y1="227.407" y2="227.407" gradientTransform="translate(-465.6258,368.3664)" gradientUnits="userSpaceOnUse" xlink:href="#linearGradient2316"/><linearGradient id="linearGradient2654" x1="201.93" x2="418.195" y1="227.407" y2="227.407" gradientTransform="translate(-465.6258,368.3664)" gradientUnits="userSpaceOnUse" xlink:href="#linearGradient2316"/><linearGradient id="linearGradient2658" x1="-313.987" x2="-98.155" y1="583.651" y2="583.651" gradientTransform="translate(-92.93399,12.12184)" gradientUnits="userSpaceOnUse" xlink:href="#linearGradient2294"/><linearGradient id="linearGradient2662" x1="-313.987" x2="-98.155" y1="583.651" y2="583.651" gradientTransform="translate(-92.93399,12.12184)" gradientUnits="userSpaceOnUse" xlink:href="#linearGradient2294"/><linearGradient id="linearGradient2666" x1="201.93" x2="418.195" y1="227.407" y2="227.407" gradientTransform="translate(-465.6258,368.3664)" gradientUnits="userSpaceOnUse" xlink:href="#linearGradient2316"/><linearGradient id="linearGradient2670" x1="201.93" x2="418.195" y1="227.407" y2="227.407" gradientTransform="translate(-467.2469,368.3664)" gradientUnits="userSpaceOnUse" xlink:href="#linearGradient2316"/><linearGradient id="linearGradient2674" x1="-313.987" x2="-98.155" y1="583.651" y2="583.651" gradientTransform="translate(-92.93399,12.33831)" gradientUnits="userSpaceOnUse" xlink:href="#linearGradient2294"/><linearGradient id="linearGradient2678" x1="-313.987" x2="-98.155" y1="583.651" y2="583.651" gradientTransform="translate(-92.93398,12.33837)" gradientUnits="userSpaceOnUse" xlink:href="#linearGradient2294"/><linearGradient id="linearGradient2694" x1="-313.987" x2="-98.155" y1="583.651" y2="583.651" gradientTransform="translate(-93.11909,-200.9056)" gradientUnits="userSpaceOnUse" xlink:href="#linearGradient2294"/><linearGradient id="linearGradient3712" x1="-230.155" x2="-89.845" y1="797.375" y2="797.375" gradientTransform="matrix(1,0,0,0.99711,0.252538,2.429552)" gradientUnits="userSpaceOnUse" xlink:href="#linearGradient2316"/><linearGradient id="linearGradient4333" x1="-250.391" x2="-109.609" y1="727.359" y2="727.359" gradientTransform="matrix(1,0,0,1.002543,-144.2838,202.1652)" gradientUnits="userSpaceOnUse" xlink:href="#linearGradient2294"/><linearGradient id="linearGradient4335" x1="-230.155" x2="-89.845" y1="797.375" y2="797.375" gradientTransform="matrix(1,0,0,0.99711,-144.0312,206.5536)" gradientUnits="userSpaceOnUse" xlink:href="#linearGradient2316"/><linearGradient id="linearGradient5233" x1="-230.155" x2="-89.845" y1="797.375" y2="797.375" gradientTransform="matrix(1,0,0,0.99711,-385.4824,-205.8633)" gradientUnits="userSpaceOnUse" xlink:href="#linearGradient2316"/><linearGradient id="linearGradient5243" x1="-250.391" x2="-109.609" y1="727.359" y2="727.359" gradientTransform="matrix(1,0,0,1.002543,-81.55484,263.7425)" gradientUnits="userSpaceOnUse" xlink:href="#linearGradient2294"/><linearGradient id="linearGradient5245" x1="-230.155" x2="-89.845" y1="797.375" y2="797.375" gradientTransform="matrix(1,0,0,0.99711,-81.3023,268.1308)" gradientUnits="userSpaceOnUse" xlink:href="#linearGradient2316"/><linearGradient id="linearGradient5253" x1="-250.391" x2="-109.609" y1="727.359" y2="727.359" gradientTransform="matrix(1,0,0,1.002543,-81.55484,263.7425)" gradientUnits="userSpaceOnUse" xlink:href="#linearGradient2294"/><linearGradient id="linearGradient5255" x1="-230.155" x2="-89.845" y1="797.375" y2="797.375" gradientTransform="matrix(1,0,0,0.99711,-81.3023,268.1308)" gradientUnits="userSpaceOnUse" xlink:href="#linearGradient2316"/><linearGradient id="linearGradient5267" x1="-200.389" x2="-126.276" y1="730.886" y2="806.959" gradientTransform="matrix(0.707107,-0.707107,0.708905,0.708905,-653.0184,363.2062)" gradientUnits="userSpaceOnUse" xlink:href="#linearGradient2294"/><linearGradient id="linearGradient5269" x1="-188.234" x2="-111.815" y1="744.188" y2="820.423" gradientTransform="matrix(0.707107,-0.707107,0.705063,0.705063,-611.3509,366.1307)" gradientUnits="userSpaceOnUse" xlink:href="#linearGradient2316"/><linearGradient id="linearGradient5291" x1="-250.391" x2="-109.609" y1="727.359" y2="727.359" gradientTransform="matrix(0.707107,-0.707107,0.708905,0.708905,-650.3466,676.0633)" gradientUnits="userSpaceOnUse" xlink:href="#linearGradient2294"/><linearGradient id="linearGradient5293" x1="-230.155" x2="-89.845" y1="797.375" y2="797.375" gradientTransform="matrix(0.707107,-0.707107,0.705063,0.705063,-647.0649,678.9878)" gradientUnits="userSpaceOnUse" xlink:href="#linearGradient2316"/><linearGradient id="linearGradient5333" x1="-250.391" x2="-109.609" y1="727.359" y2="727.359" gradientTransform="matrix(0.707107,-0.707107,0.708905,0.708905,-581.9715,818.062)" gradientUnits="userSpaceOnUse" xlink:href="#linearGradient2294"/><linearGradient id="linearGradient5335" x1="-230.155" x2="-89.845" y1="797.375" y2="797.375" gradientTransform="matrix(0.707107,-0.707107,0.705063,0.705063,-578.6898,820.9865)" gradientUnits="userSpaceOnUse" xlink:href="#linearGradient2316"/><linearGradient id="linearGradient5337" x1="-402.5" x2="-394.107" y1="1111.291" y2="1133.076" gradientTransform="matrix(-0.707107,0.707107,-0.707107,-0.707107,341.6382,2545.021)" gradientUnits="userSpaceOnUse" xlink:href="#linearGradient5305"/><linearGradient id="linearGradient5339" x1="-397.946" x2="-397.946" y1="1096.85" y2="1123.589" gradientTransform="matrix(-0.707107,0.707107,-0.707107,-0.707107,341.6382,2545.021)" gradientUnits="userSpaceOnUse" xlink:href="#linearGradient5313"/><linearGradient id="linearGradient3944" x1="1029.854" x2="786.347" y1="2703.791" y2="2703.791" gradientTransform="translate(-14.16893,642.4957)" gradientUnits="userSpaceOnUse" xlink:href="#linearGradient2953"/><linearGradient id="linearGradient5170" x1="1651.429" x2="1651.429" y1="-2988.933" y2="-3097.22" gradientTransform="translate(332.85714,-404.85714)" gradientUnits="userSpaceOnUse" xlink:href="#linearGradient5164"/><linearGradient id="linearGradient5298" x1="1607.152" x2="1605.132" y1="3759.519" y2="3653.557" gradientUnits="userSpaceOnUse" xlink:href="#linearGradient5164"/><linearGradient id="linearGradient5312" x1="1607.152" x2="1605.132" y1="3759.519" y2="3653.557" gradientUnits="userSpaceOnUse" xlink:href="#linearGradient5164"/><linearGradient id="linearGradient5318" x1="1607.152" x2="1605.132" y1="3759.519" y2="3653.557" gradientTransform="translate(-1384.3006,-7627.1717)" gradientUnits="userSpaceOnUse" xlink:href="#linearGradient5164"/><linearGradient id="linearGradient5406" x1="1607.152" x2="1605.132" y1="3759.519" y2="3653.557" gradientTransform="translate(-1367.2189,-7892.6832)" gradientUnits="userSpaceOnUse" xlink:href="#linearGradient5164"/><linearGradient id="linearGradient3710" x1="307.115" x2="305.706" y1="6493.089" y2="6417.015" gradientTransform="translate(659.31126,-75.344653)" gradientUnits="userSpaceOnUse" xlink:href="#linearGradient3704"/><linearGradient id="linearGradient3742" x1="-36.283" x2="122.891" y1="4613.473" y2="4763.054" gradientTransform="matrix(0.5067265,-0.4483367,-0.4483367,-0.5067265,2812.1234,8681.6626)" gradientUnits="userSpaceOnUse" xlink:href="#linearGradient2939"/><linearGradient id="linearGradient3823" x1="-36.283" x2="122.891" y1="4613.473" y2="4763.054" gradientTransform="matrix(0.5067265,-0.4483367,-0.4483367,-0.5067265,2879.7451,8769.0073)" gradientUnits="userSpaceOnUse" xlink:href="#linearGradient2939"/><linearGradient id="linearGradient3853" x1="-9471.934" x2="-9478.977" y1="-86.833" y2="137.25" gradientTransform="matrix(0.7071068,-0.7071068,-0.7071068,-0.7071068,7668.2913,-642.22226)" gradientUnits="userSpaceOnUse" xlink:href="#linearGradient2939"/><linearGradient id="linearGradient4502" x1="605.251" x2="931.248" y1="10347.943" y2="10347.943" gradientUnits="userSpaceOnUse" xlink:href="#linearGradient4496"/><linearGradient id="linearGradient4510" x1="943.753" x2="1426.513" y1="10358.98" y2="10358.98" gradientUnits="userSpaceOnUse" xlink:href="#linearGradient4504"/><linearGradient id="linearGradient4524" x1="1436.477" x2="610.965" y1="10345.827" y2="10345.827" gradientUnits="userSpaceOnUse" xlink:href="#linearGradient4518"/><filter id="filter5643"><feGaussianBlur id="feGaussianBlur5645" stdDeviation="3.589"/></filter><filter id="filter5948"><feGaussianBlur id="feGaussianBlur5950" stdDeviation="4.902"/></filter><linearGradient id="linearGradient5966" x1="4040.604" x2="3190.155" y1="17365.137" y2="17365.137" gradientTransform="translate(-324.67695,-2743.1992)" gradientUnits="userSpaceOnUse" xlink:href="#linearGradient5968"/><linearGradient id="linearGradient6006" x1="2204.974" x2="2018.627" y1="14982.902" y2="14828.812" gradientTransform="matrix(-1,0,0,1,5061.6207,2811.093)" gradientUnits="userSpaceOnUse" xlink:href="#linearGradient5719"/><linearGradient id="linearGradient6040" x1="4040.604" x2="3190.155" y1="17365.137" y2="17365.137" gradientTransform="translate(-319.75455,-3979.3868)" gradientUnits="userSpaceOnUse" xlink:href="#linearGradient5968"/><linearGradient id="linearGradient6090" x1="4040.604" x2="3190.155" y1="17365.137" y2="17365.137" gradientTransform="translate(-316.53207,-3363.4229)" gradientUnits="userSpaceOnUse" xlink:href="#linearGradient5968"/><linearGradient id="linearGradient6122" x1="2272.785" x2="1992.588" y1="14917.993" y2="14902.347" gradientTransform="matrix(-0.8598309,0.5105787,-0.5105787,-0.8598309,12467.066,30395.642)" gradientUnits="userSpaceOnUse" xlink:href="#linearGradient5719"/><linearGradient id="linearGradient6124" x1="4040.604" x2="3190.155" y1="17365.137" y2="17365.137" gradientTransform="translate(-317.01813,-4574.426)" gradientUnits="userSpaceOnUse" xlink:href="#linearGradient5968"/><linearGradient id="linearGradient6176" x1="4040.604" x2="3190.155" y1="17365.137" y2="17365.137" gradientTransform="translate(-308.86913,-2076.3903)" gradientUnits="userSpaceOnUse" xlink:href="#linearGradient5968"/><linearGradient id="linearGradient6214" x1="4040.604" x2="3190.155" y1="17365.137" y2="17365.137" gradientTransform="translate(-264.18365,-1459.7304)" gradientUnits="userSpaceOnUse" xlink:href="#linearGradient5968"/><linearGradient id="linearGradient6246" x1="4040.604" x2="3190.155" y1="17365.137" y2="17365.137" gradientTransform="translate(-191.45829,4956.4573)" gradientUnits="userSpaceOnUse" xlink:href="#linearGradient5968"/><linearGradient id="linearGradient6345" x1="4040.604" x2="3190.155" y1="17365.137" y2="17365.137" gradientTransform="translate(-191.45829,4956.4573)" gradientUnits="userSpaceOnUse" xlink:href="#linearGradient5968"/><linearGradient id="linearGradient6434" x1="4040.604" x2="3190.155" y1="17365.137" y2="17365.137" gradientTransform="translate(-191.45829,4956.4573)" gradientUnits="userSpaceOnUse" xlink:href="#linearGradient5968"/><linearGradient id="linearGradient6452" x1="4040.604" x2="3190.155" y1="17365.137" y2="17365.137" gradientTransform="matrix(1.3866792,0,0,1.3866792,-2284.0369,-124.16586)" gradientUnits="userSpaceOnUse" xlink:href="#linearGradient5968"/><linearGradient id="linearGradient6685" x1="3280.251" x2="1392.908" y1="23224.379" y2="23224.379" gradientTransform="matrix(0.9102094,0,0,1.9976628,2059.4799,-24918.094)" gradientUnits="userSpaceOnUse" xlink:href="#linearGradient6679"/><linearGradient id="linearGradient6729" x1="3280.251" x2="1392.908" y1="23224.379" y2="23224.379" gradientTransform="matrix(1.017094,0,0,1.6666667,1427.37,-13588.57)" gradientUnits="userSpaceOnUse" xlink:href="#linearGradient6679"/><linearGradient id="linearGradient6731" x1="4040.604" x2="3190.155" y1="17365.137" y2="17365.137" gradientTransform="translate(-191.45829,4956.4573)" gradientUnits="userSpaceOnUse" xlink:href="#linearGradient5968"/><linearGradient id="linearGradient6733" x1="2030.602" x2="2229.214" y1="15000.34" y2="14834.177" gradientTransform="matrix(-1,0,0,1,4960.7149,7384.9209)" gradientUnits="userSpaceOnUse" xlink:href="#linearGradient5719"/><linearGradient id="linearGradient6679-71"><stop offset="0" style="stop-color:#131313;stop-opacity:1" id="stop7212"/><stop offset="1" style="stop-color:#000;stop-opacity:1" id="stop7214"/></linearGradient><linearGradient id="linearGradient6731-421" x1="4040.604" x2="3190.155" y1="17365.137" y2="17365.137" gradientTransform="translate(-191.45829,4956.4573)" gradientUnits="userSpaceOnUse" xlink:href="#linearGradient5968-728"/><linearGradient id="linearGradient5968-728"><stop offset="0" style="stop-color:#fff;stop-opacity:1" id="stop7218"/><stop offset="1" style="stop-color:#828282;stop-opacity:1" id="stop7220"/></linearGradient><linearGradient id="linearGradient6731-260" x1="4040.604" x2="3190.155" y1="17365.137" y2="17365.137" gradientTransform="translate(-191.45829,4956.4573)" gradientUnits="userSpaceOnUse" xlink:href="#linearGradient5968-143"/><linearGradient id="linearGradient5968-143"><stop offset="0" style="stop-color:#fff;stop-opacity:1" id="stop7224"/><stop offset="1" style="stop-color:#828282;stop-opacity:1" id="stop7226"/></linearGradient><linearGradient id="linearGradient6731-325" x1="4040.604" x2="3190.155" y1="17365.137" y2="17365.137" gradientTransform="translate(-191.45829,4956.4573)" gradientUnits="userSpaceOnUse" xlink:href="#linearGradient5968-262"/><linearGradient id="linearGradient5968-262"><stop offset="0" style="stop-color:#fff;stop-opacity:1" id="stop7230"/><stop offset="1" style="stop-color:#828282;stop-opacity:1" id="stop7232"/></linearGradient><linearGradient id="linearGradient5719-784"><stop offset="0" style="stop-color:#cb9a5b;stop-opacity:1" id="stop7236"/><stop offset="1" style="stop-color:#7f5927;stop-opacity:1" id="stop7238"/></linearGradient><linearGradient id="linearGradient13988" x1="4040.604" x2="3190.155" y1="17365.137" y2="17365.137" gradientTransform="translate(-191.45829,4956.4573)" gradientUnits="userSpaceOnUse" xlink:href="#linearGradient5968"/><linearGradient id="linearGradient13990" x1="2030.602" x2="2229.214" y1="15000.34" y2="14834.177" gradientTransform="matrix(-1,0,0,1,4960.7149,7384.9209)" gradientUnits="userSpaceOnUse" xlink:href="#linearGradient5719"/><linearGradient id="linearGradient13988-330" x1="4040.604" x2="3190.155" y1="17365.137" y2="17365.137" gradientTransform="translate(-191.45829,4956.4573)" gradientUnits="userSpaceOnUse" xlink:href="#linearGradient5968-915"/><linearGradient id="linearGradient5968-915"><stop offset="0" style="stop-color:#000;stop-opacity:1" id="stop14343"/><stop offset="1" style="stop-color:#7d7d7d;stop-opacity:1" id="stop14345"/></linearGradient><linearGradient id="linearGradient13988-364" x1="4040.604" x2="3190.155" y1="17365.137" y2="17365.137" gradientTransform="translate(-191.45829,4956.4573)" gradientUnits="userSpaceOnUse" xlink:href="#linearGradient5968-738"/><linearGradient id="linearGradient5968-738"><stop offset="0" style="stop-color:#000;stop-opacity:1" id="stop14349"/><stop offset="1" style="stop-color:#7d7d7d;stop-opacity:1" id="stop14351"/></linearGradient><linearGradient id="linearGradient13988-724" x1="4040.604" x2="3190.155" y1="17365.137" y2="17365.137" gradientTransform="translate(-191.45829,4956.4573)" gradientUnits="userSpaceOnUse" xlink:href="#linearGradient5968-244"/><linearGradient id="linearGradient5968-244"><stop offset="0" style="stop-color:#000;stop-opacity:1" id="stop14355"/><stop offset="1" style="stop-color:#7d7d7d;stop-opacity:1" id="stop14357"/></linearGradient><linearGradient id="linearGradient13990-317" x1="2030.602" x2="2229.214" y1="15000.34" y2="14834.177" gradientTransform="matrix(-1,0,0,1,4960.7149,7384.9209)" gradientUnits="userSpaceOnUse" xlink:href="#linearGradient5719-611"/><linearGradient id="linearGradient5719-611"><stop offset="0" style="stop-color:#6c6c6c;stop-opacity:1" id="stop14361"/><stop offset="1" style="stop-color:#acacac;stop-opacity:1" id="stop14363"/></linearGradient><linearGradient id="linearGradient18751" x1="4040.604" x2="3190.155" y1="17365.137" y2="17365.137" gradientTransform="translate(-191.45829,4956.4573)" gradientUnits="userSpaceOnUse" xlink:href="#linearGradient5968"/><linearGradient id="linearGradient18753" x1="2030.602" x2="2229.214" y1="15000.34" y2="14834.177" gradientTransform="matrix(-1,0,0,1,4960.7149,7384.9209)" gradientUnits="userSpaceOnUse" xlink:href="#linearGradient5719"/><linearGradient id="linearGradient21160" x1="4040.604" x2="3190.155" y1="17365.137" y2="17365.137" gradientTransform="translate(-191.45829,4956.4573)" gradientUnits="userSpaceOnUse" xlink:href="#linearGradient5968"/><linearGradient id="linearGradient25937" x1="4040.604" x2="3190.155" y1="17365.137" y2="17365.137" gradientTransform="matrix(1.3866792,0,0,1.3866792,495.88665,-11491.368)" gradientUnits="userSpaceOnUse" xlink:href="#linearGradient5968"/><linearGradient id="linearGradient26045" x1="4040.604" x2="3190.155" y1="17365.137" y2="17365.137" gradientTransform="matrix(1.6595909,0,0,1.6595909,-3400.209,-7255.3125)" gradientUnits="userSpaceOnUse" xlink:href="#linearGradient5968"/><linearGradient id="linearGradient26066" x1="4040.604" x2="3190.155" y1="17365.137" y2="17365.137" gradientTransform="matrix(1.6595909,0,0,1.6595909,-3400.209,-7255.3125)" gradientUnits="userSpaceOnUse" xlink:href="#linearGradient5968"/><linearGradient id="linearGradient26068" x1="2030.602" x2="2229.214" y1="15000.34" y2="14834.177" gradientTransform="matrix(-1.6540236,0,0,1.6651768,5131.177,-3226.6324)" gradientUnits="userSpaceOnUse" xlink:href="#linearGradient5719"/><radialGradient id="radialGradient26171" cx="4829.688" cy="20774.236" r="422.813" fx="4829.688" fy="20774.236" gradientTransform="matrix(1,0,0,0.8337029,0,3454.6956)" gradientUnits="userSpaceOnUse" xlink:href="#linearGradient26173"/><linearGradient id="linearGradient26206" x1="4040.604" x2="3190.155" y1="17365.137" y2="17365.137" gradientTransform="matrix(1.6595909,0,0,1.6595909,-3400.209,-7255.3125)" gradientUnits="userSpaceOnUse" xlink:href="#linearGradient5968"/><linearGradient id="linearGradient26208" x1="2030.602" x2="2229.214" y1="15000.34" y2="14834.177" gradientTransform="matrix(-1.6540236,0,0,1.6651768,5131.177,-3226.6324)" gradientUnits="userSpaceOnUse" xlink:href="#linearGradient5719"/><linearGradient id="linearGradient26230" x1="4040.604" x2="3190.155" y1="17365.137" y2="17365.137" gradientTransform="matrix(1.6595909,0,0,1.6595909,-3400.209,-7255.3125)" gradientUnits="userSpaceOnUse" xlink:href="#linearGradient5968"/><linearGradient id="linearGradient26232" x1="2030.602" x2="2229.214" y1="15000.34" y2="14834.177" gradientTransform="matrix(-1.6540236,0,0,1.6651768,5131.177,-3226.6324)" gradientUnits="userSpaceOnUse" xlink:href="#linearGradient5719"/><linearGradient id="linearGradient26248" x1="4040.604" x2="3190.155" y1="17365.137" y2="17365.137" gradientTransform="matrix(1.1801936,0,0,1.1801936,-1154.3031,-6481.6275)" gradientUnits="userSpaceOnUse" xlink:href="#linearGradient5968"/><filter id="filter26253"><feGaussianBlur id="feGaussianBlur26255" stdDeviation="4.785"/></filter><linearGradient id="linearGradient2519" x1="4040.604" x2="3190.155" y1="17365.137" y2="17365.137" gradientTransform="matrix(1.1801936,0,0,1.1801936,-715.29259,-7152.2127)" gradientUnits="userSpaceOnUse" xlink:href="#linearGradient5968"/><linearGradient id="linearGradient2542" x1="4040.604" x2="3190.155" y1="17365.137" y2="17365.137" gradientTransform="matrix(1.1801936,0,0,1.1801936,-715.29259,-7152.2127)" gradientUnits="userSpaceOnUse" xlink:href="#linearGradient5968"/><linearGradient id="linearGradient3505" x1="4040.604" x2="3190.155" y1="17365.137" y2="17365.137" gradientTransform="matrix(0.561523,0,0,0.561523,-1578.9246,-9563.3758)" gradientUnits="userSpaceOnUse" xlink:href="#linearGradient5968"/><linearGradient id="linearGradient3507" x1="2030.602" x2="2229.214" y1="15000.34" y2="14834.177" gradientTransform="matrix(-0.5640686,0,0,0.5589889,1319.2134,-8155.3901)" gradientUnits="userSpaceOnUse" xlink:href="#linearGradient5719"/><linearGradient id="linearGradient2923" x1="4040.604" x2="3190.155" y1="17365.137" y2="17365.137" gradientTransform="matrix(0.561523,0,0,0.561523,-1578.9246,-9563.3758)" gradientUnits="userSpaceOnUse" xlink:href="#linearGradient5968"/><linearGradient id="linearGradient2925" x1="2030.602" x2="2229.214" y1="15000.34" y2="14834.177" gradientTransform="matrix(-0.5640686,0,0,0.5589889,1319.2134,-8155.3901)" gradientUnits="userSpaceOnUse" xlink:href="#linearGradient5719"/></defs><metadata id="metadata7"/><g id="layer1" transform="translate(2.66397,-63.877701)"><g id="g2904" transform="translate(1.1470615,6.8116818)"><text id="text3471" x="3186.49" y="17408.037" transform="matrix(0.5644058,0,0,0.558655,-1587.6234,-9516.1781)" xml:space="preserve" style="font-size:134.78288269px;font-style:normal;font-variant:normal;font-weight:700;font-stretch:normal;text-align:start;line-height:50%;writing-mode:lr-tb;text-anchor:start;opacity:.42035397;fill:#000;fill-opacity:1;stroke:#000;stroke-width:8.72626781;stroke-linecap:butt;stroke-linejoin:miter;stroke-miterlimit:4;stroke-dasharray:none;stroke-opacity:1;filter:url(#filter5948);font-family:Sans"><tspan id="tspan3473" x="3186.49" y="17408.037" style="font-size:134.78288269px;font-style:normal;font-variant:normal;font-weight:700;font-stretch:normal;text-align:start;line-height:50%;writing-mode:lr-tb;text-anchor:start;fill:#000;fill-opacity:1;stroke:#000;stroke-width:8.72626781;stroke-miterlimit:4;stroke-dasharray:none;stroke-opacity:1;font-family:Sans"><tspan id="tspan3475" style="font-weight:400;fill:#000;stroke:#000;stroke-width:8.72626781;stroke-opacity:1">Mono</tspan>Develop</tspan></text><text id="text3477" x="207.736" y="207.494" transform="scale(1.0051337,0.9948925)" xml:space="preserve" style="font-size:75.68369293px;font-style:normal;font-variant:normal;font-weight:700;font-stretch:normal;text-align:start;line-height:50%;writing-mode:lr-tb;text-anchor:start;fill:url(#linearGradient2923);fill-opacity:1;stroke:none;stroke-width:4.9000001;stroke-linecap:butt;stroke-linejoin:miter;stroke-miterlimit:4;stroke-dasharray:none;stroke-opacity:1;font-family:Sans"><tspan id="tspan3479" x="207.736" y="207.494" style="font-size:75.68369293px;font-style:normal;font-variant:normal;font-weight:700;font-stretch:normal;text-align:start;line-height:50%;writing-mode:lr-tb;text-anchor:start;fill:url(#linearGradient2923);fill-opacity:1;stroke:none;stroke-width:4.9000001;stroke-miterlimit:4;stroke-dasharray:none;stroke-opacity:1;font-family:Sans"><tspan id="tspan3481" style="font-weight:400;fill:url(#linearGradient2923);fill-opacity:1;stroke:none;stroke-width:4.9000001;stroke-opacity:1">Mono</tspan>Develop</tspan></text><g id="g3483" transform="matrix(-0.5640686,0,0,0.5589889,1514.8405,-7229.6005)" style="opacity:.26106196;fill:#000;filter:url(#filter26253)"><path id="path3485" d="M 2373.804,13160.401 C 2356.6178,13200.455 2336.1868,13241.918 2339.7103,13286.713 C 2342.1763,13334.601 2387.2913,13376.906 2435.8326,13372.796 C 2456.2296,13371.308 2475.7313,13361.553 2490.7416,13348.463 C 2494.388,13354.447 2503.0196,13353.956 2508.4736,13357.675 C 2525.8955,13365.012 2543.3186,13372.347 2560.7416,13379.682 C 2578.7821,13340.673 2598.751,13299.834 2596.5853,13255.682 C 2596.444,13206.64 2551.073,13162.426 2501.7416,13165.557 C 2480.6787,13166.689 2460.3795,13177.037 2445.0853,13190.119 C 2442.5715,13184.275 2434.5532,13185.216 2430.0305,13181.845 C 2411.5623,13174.015 2393.0854,13166.205 2374.554,13158.526 C 2374.304,13159.151 2374.0541,13159.776 2373.804,13160.401 z" style="fill:#000;fill-opacity:1;fill-rule:evenodd;stroke:none;stroke-width:1px;stroke-linecap:butt;stroke-linejoin:miter;stroke-opacity:1"/><path id="path3487" d="M 2386.5945,13187.394 C 2375.9489,13213.4 2361.8357,13236.316 2361.5219,13278.785 C 2361.1977,13322.662 2398.4973,13351.07 2427.977,13351.072 C 2463.6687,13351.078 2495.0715,13320.662 2496.7273,13295.472 C 2498.2217,13272.734 2490.2044,13239.669 2448.822,13239.916 C 2429.0628,13240.032 2408.5313,13257.377 2408.423,13283.183 C 2408.3063,13311.03 2442.8771,13313.748 2451.5951,13306.658 C 2454.9814,13303.904 2454.878,13298.455 2451.8818,13299.438 C 2433.2678,13305.555 2421.7684,13293.5 2422.6224,13281.51 C 2423.7816,13265.239 2433.3476,13255.56 2450.4954,13254.737 C 2475.2312,13253.551 2482.1561,13277.827 2481.5237,13287.678 C 2480.7553,13299.657 2470.405,13324.296 2438.2084,13328.794 C 2423.0061,13330.918 2410.4068,13326.323 2401.2037,13317.32 C 2392.0005,13308.314 2386.8265,13299.003 2386.0706,13283.731 C 2385.2888,13267.932 2388.707,13258.663 2398.0709,13237.935 C 2401.4156,13230.53 2410.7583,13215.598 2417.9933,13200.64 L 2386.5945,13187.394 z" style="fill:#000;fill-opacity:1;fill-rule:evenodd;stroke:none;stroke-width:1px;stroke-linecap:butt;stroke-linejoin:miter;stroke-opacity:1"/><path id="path3489" d="M 2549.5322,13351.072 C 2560.1777,13325.067 2574.291,13302.151 2574.6047,13259.682 C 2574.9289,13215.805 2537.6294,13187.397 2508.1496,13187.394 C 2472.458,13187.39 2441.0551,13217.804 2439.3993,13242.997 C 2437.9049,13265.732 2445.9222,13298.797 2487.3046,13298.551 C 2507.0638,13298.435 2527.5953,13281.09 2527.7036,13255.283 C 2527.8204,13227.436 2493.2495,13224.719 2484.5315,13231.809 C 2481.1452,13234.562 2481.2487,13240.012 2484.2448,13239.028 C 2502.8589,13232.912 2514.3583,13244.966 2513.5043,13256.957 C 2512.3451,13273.228 2502.779,13282.908 2485.6312,13283.731 C 2460.8954,13284.917 2453.9706,13260.641 2454.6029,13250.789 C 2455.3714,13238.81 2465.7217,13214.172 2497.9182,13209.672 C 2513.1206,13207.549 2525.7198,13212.143 2534.923,13221.147 C 2544.1261,13230.152 2549.3001,13239.463 2550.056,13254.737 C 2550.8378,13270.535 2547.4197,13279.805 2538.0558,13300.533 C 2534.7111,13307.936 2525.3684,13322.871 2518.1333,13337.826 L 2549.5322,13351.072 z" style="fill:#000;fill-opacity:1;fill-rule:evenodd;stroke:none;stroke-width:1px;stroke-linecap:butt;stroke-linejoin:miter;stroke-opacity:1"/><path id="path3491" d="M 2386.5741,13187.394 C 2375.9286,13213.4 2361.8357,13236.336 2361.5219,13278.806 C 2361.1977,13322.683 2398.4974,13351.091 2427.9772,13351.094 C 2463.669,13351.098 2495.0715,13320.682 2496.7273,13295.491 C 2498.0538,13275.31 2491.8333,13246.975 2461.4918,13241.035 L 2458.7665,13255.378 C 2476.8034,13259.27 2482.0791,13279.049 2481.5239,13287.698 C 2480.7556,13299.677 2470.405,13324.316 2438.2084,13328.814 C 2423.0061,13330.937 2410.407,13326.345 2401.2038,13317.34 C 2392.0008,13308.336 2386.8042,13299.003 2386.0481,13283.731 C 2385.2665,13267.932 2388.6845,13258.657 2398.0484,13237.929 C 2401.3931,13230.525 2410.7498,13215.595 2417.9849,13200.637 L 2386.5741,13187.394 z" style="fill:#000;fill-opacity:1;fill-rule:evenodd;stroke:none;stroke-width:1px;stroke-linecap:butt;stroke-linejoin:miter;stroke-opacity:1"/></g><path id="path3493" d="M 171.70488,119.80373 C 181.39908,142.19367 192.92354,165.37052 190.93607,190.41056 C 189.54508,217.17926 164.09708,240.82769 136.71648,238.53021 C 125.21115,237.69845 114.21089,232.24529 105.74402,224.928 C 103.68721,228.27297 98.818394,227.99871 95.741964,230.07763 C 85.914834,234.17882 76.087034,238.27907 66.259234,242.37932 C 56.083134,220.57332 44.819314,197.74484 46.040924,173.0645 C 46.120634,145.65098 71.712974,120.93571 99.539264,122.68561 C 111.42022,123.31864 122.87035,129.1027 131.49735,136.41574 C 132.91529,133.14866 137.43816,133.675 139.98925,131.79057 C 150.40657,127.41369 160.82882,123.04768 171.28182,118.7553 C 171.42281,119.10462 171.5638,119.45441 171.70488,119.80373 z" style="fill:url(#linearGradient2925);fill-opacity:1;fill-rule:evenodd;stroke:none;stroke-width:1px;stroke-linecap:butt;stroke-linejoin:miter;stroke-opacity:1"/><path id="path3495" d="M 164.49013,134.89243 C 170.49501,149.42929 178.45581,162.23892 178.63281,185.97893 C 178.81572,210.50585 157.77612,226.38523 141.14757,226.38617 C 121.015,226.38995 103.30165,209.38755 102.36767,195.30669 C 101.52476,182.59667 106.04705,164.11344 129.38956,164.25175 C 140.53513,164.31642 152.11632,174.01239 152.17737,188.43738 C 152.24321,204.00332 132.74289,205.52286 127.82535,201.5595 C 125.91524,200.02014 125.97355,196.97445 127.66364,197.52392 C 138.1632,200.943 144.64966,194.20445 144.16795,187.50177 C 143.51407,178.40673 138.11817,172.99653 128.44565,172.53628 C 114.49297,171.87352 110.58685,185.44362 110.94354,190.95011 C 111.37701,197.64618 117.21525,211.41927 135.37637,213.93342 C 143.95152,215.12063 151.05838,212.55219 156.24955,207.51917 C 161.44078,202.4852 164.35931,197.28034 164.78568,188.74374 C 165.22668,179.9121 163.29853,174.73085 158.01666,163.14431 C 156.13005,159.00488 150.86008,150.65805 146.77907,142.29705 L 164.49013,134.89243 z" style="fill:#bad0e8;fill-opacity:1;fill-rule:evenodd;stroke:none;stroke-width:1px;stroke-linecap:butt;stroke-linejoin:miter;stroke-opacity:1"/><path id="path3497" d="M 72.582114,226.38617 C 66.577324,211.85025 58.616434,199.04016 58.439474,175.30062 C 58.256624,150.7737 79.296114,134.89431 95.924714,134.89243 C 116.05723,134.89007 133.77063,151.89152 134.70461,165.9738 C 135.54757,178.68241 131.02523,197.16516 107.68277,197.02779 C 96.537204,196.96312 84.956014,187.26716 84.894964,172.8417 C 84.829074,157.27528 104.32943,155.75669 109.24693,159.71957 C 111.15709,161.25894 111.09868,164.30509 109.40868,163.75515 C 98.909084,160.33654 92.422584,167.07415 92.904294,173.7773 C 93.558214,182.87235 98.954114,188.28349 108.62667,188.74374 C 122.57936,189.4065 126.48543,175.83687 126.12873,170.32943 C 125.69527,163.63336 119.85698,149.86122 101.69596,147.34518 C 93.120764,146.15844 86.013904,148.72688 80.822684,153.75991 C 75.631554,158.7934 72.713034,163.99826 72.286664,172.53628 C 71.845664,181.36744 73.773714,186.54917 79.055574,198.1357 C 80.942234,202.27372 86.212154,210.62244 90.293264,218.9825 L 72.582114,226.38617 z" style="fill:#eeeeec;fill-opacity:1;fill-rule:evenodd;stroke:none;stroke-width:1px;stroke-linecap:butt;stroke-linejoin:miter;stroke-opacity:1"/><path id="path3499" d="M 164.50168,134.89243 C 170.50647,149.42929 178.45581,162.25025 178.63281,185.99073 C 178.81572,210.51765 157.77612,226.39703 141.14747,226.39892 C 121.01486,226.40128 103.30165,209.39888 102.36767,195.31707 C 101.61942,184.03643 105.12823,168.19764 122.2429,164.87675 L 123.78021,172.89457 C 113.60613,175.07026 110.6303,186.12621 110.94345,190.96144 C 111.37682,197.65751 117.21525,211.43013 135.37637,213.94475 C 143.95152,215.13102 151.05828,212.56447 156.24951,207.53097 C 161.44064,202.49747 164.37187,197.28034 164.79834,188.74374 C 165.23924,179.9121 163.31124,174.72755 158.02937,163.14054 C 156.14271,159.00205 150.86488,150.65616 146.78382,142.29516 L 164.50168,134.89243 z" style="fill:#bad0e8;fill-opacity:1;fill-rule:evenodd;stroke:none;stroke-width:1px;stroke-linecap:butt;stroke-linejoin:miter;stroke-opacity:1"/><text id="text3501" x="301.526" y="247.281" transform="scale(1.0079145,0.9921476)" style="font-size:20.11436653px;font-style:normal;font-variant:normal;font-weight:400;font-stretch:normal;text-align:start;line-height:125%;writing-mode:lr-tb;text-anchor:start;fill:#666;fill-opacity:1;stroke:none;stroke-width:1px;stroke-linecap:butt;stroke-linejoin:miter;stroke-opacity:1;font-family:Bitstream Vera Sans" xml:space="preserve"><tspan id="tspan3503" x="301.526" y="247.281">Free GNOME Development Environment</tspan></text></g></g><path style="fill:none;fill-opacity:1;stroke:#000;stroke-width:1px;stroke-linecap:butt;stroke-linejoin:miter;stroke-opacity:1" id="path22354" d="M 5321.8266,-22063.056 L 5321.8266,-22163.056 L 5365.1985,-22236.969 L 5404.9072,-22253.307 L 5365.1985,-22236.969 L 5369.8406,-22282.64 L 5365.1985,-22236.969 L 5321.8266,-22163.056 L 5300.0315,-22209.604 L 5301.3871,-22254.032 L 5300.0315,-22209.604 L 5264.1897,-22234.244 L 5300.0315,-22209.604 L 5321.8266,-22163.056 L 5321.8266,-22063.056"/></svg>